<svg width="30" height="18" viewBox="0 0 30 18" fill="none" xmlns="http://www.w3.org/2000/svg">
<path fill-rule="evenodd" clip-rule="evenodd" d="M15 11.8318C16.2426 11.8318 18.0391 10.2426 18.0391 8.99998C18.0391 7.75734 16.2426 6.07275 15 6.07275C13.7573 6.07275 11.9988 7.75734 11.9988 8.99998C11.9988 10.2426 13.7573 11.8318 15 11.8318Z" fill="#F18209"/>
<path fill-rule="evenodd" clip-rule="evenodd" d="M29.6963 8.17697L30 8.56055L29.6963 8.94413C29.4281 9.27768 23.0756 18 15 18C6.92625 18 0.571875 9.27768 0.30375 8.94413L0 8.56055L0.30375 8.17697C0.571875 7.84342 6.92625 0 15 0C23.0775 0 29.4281 7.84342 29.6963 8.17697ZM2.92946 8.60875C7.07056 13.3797 11.0941 15.7651 15 15.7651C18.9059 15.7651 22.9317 13.3797 27.0774 8.60875C22.9749 4.3751 18.9491 2.25828 15 2.25828C11.0509 2.25828 7.02734 4.3751 2.92946 8.60875ZM15 13.5C12.5147 13.5 10.5 11.4853 10.5 9C10.5 6.51472 12.5147 4.5 15 4.5C17.4853 4.5 19.5 6.51472 19.5 9C19.5 11.4853 17.4853 13.5 15 13.5ZM15 11.25C16.2426 11.25 17.25 10.2426 17.25 9C17.25 7.75736 16.2426 6.75 15 6.75C13.7574 6.75 12.75 7.75736 12.75 9C12.75 10.2426 13.7574 11.25 15 11.25Z" fill="#F18209"/>
</svg>
