<svg width="30" height="22" viewBox="0 0 30 22" fill="none" xmlns="http://www.w3.org/2000/svg">
<path fill-rule="evenodd" clip-rule="evenodd" d="M10.9686 10.444C9.75936 9.34629 9 7.76182 9 6C9 2.68629 11.6863 0 15 0C18.3137 0 21 2.68629 21 6C21 7.76182 20.2406 9.34629 19.0314 10.444C23.6757 12.1001 27 16.5368 27 21.75H24.75C24.75 16.3652 20.3848 12 15 12C9.61522 12 5.25 16.3652 5.25 21.75H3C3 16.5368 6.32426 12.1001 10.9686 10.444V10.444ZM15 9.75C17.0711 9.75 18.75 8.07107 18.75 6C18.75 3.92893 17.0711 2.25 15 2.25C12.9289 2.25 11.25 3.92893 11.25 6C11.25 8.07107 12.9289 9.75 15 9.75Z" fill="#F19409"/>
</svg>
