<svg width="51" height="50" viewBox="0 0 51 50" fill="none" xmlns="http://www.w3.org/2000/svg">
<rect width="51" height="50" fill="white"/>
<path d="M30.314 22.5942C29.5893 22.5942 29.5893 23.7717 30.314 23.7717C31.0386 23.7717 31.0386 22.5942 30.314 22.5942Z" fill="#F78F1E"/>
<path d="M23.0676 28.8021C21.9806 28.8021 21.9806 30.3722 23.0676 30.3722C24.0338 30.3722 24.0338 28.8021 23.0676 28.8021Z" fill="#F78F1E"/>
<path d="M18.599 28.2091C17.6328 28.2091 17.6328 29.6584 18.599 29.6584C19.4444 29.6584 19.4444 28.2091 18.599 28.2091Z" fill="#F78F1E"/>
<path d="M25.9662 17.7447C27.2947 17.7447 27.2947 15.8123 25.9662 15.8123C24.7585 15.8123 24.7585 17.7447 25.9662 17.7447Z" fill="#F78F1E"/>
<path d="M33.0918 25.4358C34.1788 25.4358 34.1788 23.8054 33.0918 23.8054C32.0049 23.8054 32.0049 25.4358 33.0918 25.4358Z" fill="#F78F1E"/>
<path d="M30.5555 19.419C32.1255 19.419 32.1255 16.8828 30.5555 16.8828C28.8646 16.8828 28.8646 19.419 30.5555 19.419Z" fill="#F78F1E"/>
<path d="M23.6715 31.9788C22.1014 31.9788 22.1014 34.515 23.6715 34.515C25.3623 34.515 25.3623 31.9788 23.6715 31.9788Z" fill="#F78F1E"/>
<path d="M17.1498 19.7837C16.0628 19.7837 16.0628 21.3537 17.1498 21.3537C18.1159 21.3537 18.1159 19.7837 17.1498 19.7837Z" fill="#F78F1E"/>
<path d="M25 0C11.215 0 0 11.2149 0 25C0 38.7851 11.215 50 25 50C38.785 50 50 38.7851 50 25C50 11.2149 38.785 0 25 0ZM1.69082 25C1.68673 19.076 3.94668 13.3743 8.00821 9.06172L15.5807 16.6257C13.7731 18.6514 12.6703 21.2081 12.4373 23.913H8.47319C8.24897 23.913 8.03394 24.0021 7.87539 24.1607C7.71685 24.3192 7.62778 24.5342 7.62778 24.7585C7.62778 24.9827 7.71685 25.1977 7.87539 25.3562C8.03394 25.5148 8.24897 25.6039 8.47319 25.6039H12.406C12.5351 28.3885 13.59 31.0504 15.4036 33.1675L12.7159 35.8593C12.6368 35.9377 12.574 36.031 12.531 36.1338C12.488 36.2365 12.4657 36.3468 12.4653 36.4582C12.465 36.5696 12.4867 36.6799 12.5291 36.7829C12.5715 36.8859 12.6338 36.9796 12.7124 37.0585C12.7911 37.1374 12.8845 37.1999 12.9874 37.2427C13.0903 37.2854 13.2006 37.3074 13.312 37.3074C13.4234 37.3074 13.5337 37.2854 13.6366 37.2427C13.7395 37.2 13.8329 37.1375 13.9116 37.0586L16.5838 34.3867C18.6771 36.2722 21.3435 37.3992 24.1546 37.5865V41.3018C24.1546 41.526 24.2437 41.7411 24.4022 41.8996C24.5607 42.0582 24.7758 42.1472 25 42.1472C25.2242 42.1472 25.4392 42.0582 25.5978 41.8996C25.7563 41.7411 25.8454 41.526 25.8454 41.3018V37.5865C28.6364 37.4006 31.2854 36.2882 33.3723 34.4258L40.9383 41.9918C36.6257 46.0533 30.924 48.3133 25 48.3092C12.1473 48.3092 1.69082 37.8528 1.69082 25ZM25 14.088C27.0785 14.0869 29.1141 14.6794 30.8673 15.7958C32.6204 16.9122 34.0183 18.5061 34.8965 20.39C35.7746 22.2739 36.0964 24.3694 35.8241 26.4299C35.5518 28.4905 34.6967 30.4304 33.3593 32.0215L32.5461 31.2083C32.9427 30.5599 33.1095 29.7968 33.0198 29.042C32.9301 28.2872 32.5891 27.5846 32.0516 27.0471C31.5141 26.5096 30.8114 26.1686 30.0566 26.0789C29.3018 25.9892 28.5388 26.156 27.8903 26.5525L26.9362 25.5984C27.7239 24.6881 28.1376 23.5133 28.0942 22.3103C28.0509 21.1073 27.5535 19.9654 26.7024 19.1142C25.8512 18.263 24.7092 17.7657 23.5062 17.7223C22.3032 17.6789 21.1284 18.0927 20.2181 18.8803L17.985 16.6472C19.9477 14.9925 22.4328 14.0859 25 14.088V14.088ZM25.201 35.9221C25.0691 35.8888 24.9309 35.8888 24.799 35.9221C22.7201 35.885 20.6951 35.2548 18.9623 34.1055C17.2295 32.9562 15.8612 31.3358 15.0184 29.435C14.1756 27.5342 13.8934 25.4322 14.205 23.3764C14.5167 21.3207 15.4092 19.3967 16.7775 17.8312L19.1481 20.2016C18.654 21.1053 18.4661 22.1447 18.6124 23.1642C18.7587 24.1837 19.2314 25.1283 19.9596 25.8565C20.6879 26.5848 21.6325 27.0575 22.652 27.2038C23.6715 27.3501 24.7109 27.1622 25.6146 26.6681L26.7136 27.7671C26.3454 28.4119 26.1993 29.1599 26.2979 29.8959C26.3966 30.6319 26.7344 31.315 27.2595 31.84C27.7845 32.3651 28.4677 32.703 29.2036 32.8016C29.9396 32.9002 30.6876 32.7542 31.3324 32.3859L32.1756 33.2291C30.2422 34.9231 27.7711 35.8773 25.201 35.9221ZM25.7365 24.3987L21.4175 20.0797C22.0082 19.6088 22.7517 19.3719 23.5059 19.4143C24.2602 19.4567 24.9724 19.7754 25.5066 20.3096C26.0409 20.8437 26.3596 21.5559 26.402 22.3102C26.4445 23.0645 26.2076 23.8079 25.7367 24.3987H25.7365ZM24.3377 25.3912C23.7921 25.5808 23.2042 25.6128 22.6413 25.4837C22.0783 25.3546 21.5631 25.0695 21.1547 24.6611C20.7463 24.2527 20.4613 23.7375 20.3321 23.1746C20.203 22.6116 20.2351 22.0237 20.4246 21.4781L24.3377 25.3912ZM31.278 29.9403L29.1585 27.8207C29.4531 27.7303 29.7667 27.7218 30.0657 27.7963C30.3648 27.8707 30.6379 28.0251 30.8558 28.243C31.0736 28.4609 31.2281 28.734 31.3025 29.0331C31.3769 29.3321 31.3684 29.6457 31.278 29.9403V29.9403ZM30.0411 31.0946C29.7601 31.1615 29.4667 31.1554 29.1888 31.0768C28.9109 30.9982 28.6577 30.8497 28.4535 30.6455C28.2493 30.4413 28.1007 30.1881 28.0221 29.9102C27.9434 29.6323 27.9373 29.3389 28.0042 29.058L30.0411 31.0946ZM42.1287 40.7911L37.4601 36.1223C37.4182 36.0258 37.3584 35.938 37.2841 35.8634L34.5964 33.1675C36.41 31.0504 37.4649 28.3885 37.594 25.6039H41.5268C41.751 25.6039 41.9661 25.5148 42.1246 25.3562C42.2832 25.1977 42.3722 24.9827 42.3722 24.7585C42.3722 24.5342 42.2832 24.3192 42.1246 24.1607C41.9661 24.0021 41.751 23.913 41.5268 23.913H37.5627C37.3241 21.1892 36.2074 18.6166 34.3806 16.5821L37.2841 13.6827C37.3639 13.6046 37.4274 13.5113 37.4709 13.4084C37.5144 13.3055 37.5371 13.195 37.5376 13.0833C37.5381 12.9716 37.5165 12.8609 37.4739 12.7576C37.4313 12.6543 37.3686 12.5605 37.2895 12.4816C37.2104 12.4027 37.1165 12.3402 37.0131 12.2979C36.9097 12.2556 36.7989 12.2342 36.6872 12.235C36.5755 12.2358 36.465 12.2588 36.3622 12.3025C36.2595 12.3463 36.1664 12.4101 36.0884 12.4901L33.1694 15.4094C31.1133 13.6519 28.5444 12.6056 25.8454 12.4262V8.24879C25.8454 8.02458 25.7563 7.80954 25.5978 7.651C25.4392 7.49245 25.2242 7.40338 25 7.40338C24.7758 7.40338 24.5607 7.49245 24.4022 7.651C24.2437 7.80954 24.1546 8.02458 24.1546 8.24879V12.4268C21.4556 12.6062 18.8868 13.6525 16.8306 15.4099L13.9116 12.4909C13.837 12.4166 13.7492 12.3569 13.6527 12.315L9.20894 7.87126C13.5052 3.89402 19.1454 1.68653 25 1.69082C37.8527 1.69082 48.3092 12.1472 48.3092 25C48.3134 30.8546 46.1059 36.4947 42.1287 40.7911V40.7911Z" fill="#F78F1E"/>
</svg>
