<svg width="61" height="53" viewBox="0 0 61 53" fill="none" xmlns="http://www.w3.org/2000/svg">
<rect width="61" height="53" fill="white"/>
<path d="M7.89798 28.279C7.89798 28.3693 7.89154 28.4596 7.88509 28.5498C7.88509 28.5949 7.8464 28.7304 7.88509 28.5563C7.85285 28.6981 7.82706 28.84 7.78193 28.9754C7.76259 29.0269 7.74324 29.085 7.7239 29.1365C7.78838 28.9689 7.7368 29.1043 7.71745 29.1365C7.63363 29.2848 7.55626 29.4267 7.45955 29.5685C7.56916 29.4073 7.35639 29.6846 7.3177 29.7233C7.22744 29.8135 7.13717 29.8974 7.04046 29.9747C7.18875 29.8587 7.04046 29.9747 7.00177 29.9941C6.94375 30.0328 6.88572 30.0714 6.82124 30.1037C6.76966 30.1295 6.71808 30.1553 6.67295 30.181C6.48597 30.2842 6.78256 30.1553 6.58913 30.2133C6.45373 30.2584 6.31833 30.2971 6.17649 30.3293C5.99595 30.3745 6.13135 30.3422 6.17649 30.3358C6.10556 30.3422 6.02819 30.3487 5.95727 30.3551C5.82187 30.3616 5.68647 30.3551 5.55752 30.3487C5.28027 30.3358 5.67358 30.3745 5.51239 30.3422C5.41567 30.3229 5.31251 30.2971 5.2158 30.2713C5.15132 30.252 4.87408 30.1424 5.04816 30.2197C4.91921 30.1617 4.79671 30.0972 4.68065 30.0199C4.63552 29.9876 4.59039 29.9554 4.53881 29.9231C4.71289 30.0457 4.49367 29.8845 4.47433 29.8651C4.37117 29.7684 4.27446 29.6717 4.18419 29.5685C4.01011 29.3751 4.24222 29.6652 4.1584 29.5298C4.11971 29.4718 4.08103 29.4138 4.04234 29.3558C4.01655 29.3106 3.98431 29.259 3.95852 29.2075C3.95852 29.2139 3.84247 28.9625 3.9005 29.0914C3.95852 29.2204 3.85536 28.9625 3.86181 28.9689C3.84247 28.9173 3.82957 28.8593 3.81023 28.8013C3.79089 28.7304 3.77799 28.6594 3.7651 28.5885C3.7522 28.5176 3.7522 28.5305 3.7651 28.6272C3.75865 28.5821 3.75865 28.5369 3.7522 28.4982C3.73931 28.3628 3.73931 28.2274 3.7522 28.0985C3.7522 28.1049 3.79089 27.8212 3.7651 27.9631C3.73931 28.1049 3.79734 27.8277 3.79734 27.8341C3.82957 27.7116 3.86826 27.5891 3.90694 27.4666C3.95852 27.3183 3.79734 27.6536 3.92629 27.4279C3.96497 27.357 4.00366 27.2796 4.04879 27.2087C4.07458 27.1636 4.11327 27.112 4.13906 27.0669C4.26801 26.8412 4.01655 27.1894 4.19064 26.996C4.26801 26.9121 4.33893 26.8283 4.42275 26.7509C4.48078 26.6929 4.54525 26.6349 4.60973 26.5833C4.57749 26.6091 4.46788 26.6736 4.61618 26.5833C4.75157 26.5059 4.88053 26.4221 5.01592 26.3512C5.15777 26.2803 4.80315 26.4157 5.06106 26.3319C5.11264 26.3125 5.17067 26.2932 5.22225 26.2803C5.29317 26.2609 5.35765 26.2416 5.42857 26.2287C5.48015 26.2158 5.66713 26.19 5.4737 26.2094C5.6091 26.19 5.73805 26.19 5.87345 26.19C5.95082 26.19 6.02174 26.1965 6.09912 26.2029C6.30544 26.2158 5.97016 26.1642 6.18938 26.2158C6.33123 26.248 6.46663 26.2867 6.60203 26.3319C6.85348 26.4092 6.45373 26.2416 6.68584 26.3641C6.75677 26.4028 6.83414 26.4415 6.90506 26.4866C6.95019 26.5124 7.00177 26.5511 7.04691 26.5769C7.23389 26.6865 6.96954 26.493 7.11783 26.6284C7.24033 26.7445 7.35639 26.8606 7.47245 26.9831C7.49824 27.0153 7.57561 27.1314 7.47889 26.9831C7.52403 27.054 7.57561 27.1185 7.61429 27.1958C7.65298 27.2539 7.67877 27.3183 7.71745 27.3828C7.7368 27.4215 7.75614 27.4602 7.77548 27.4989C7.7368 27.4086 7.7368 27.4022 7.75614 27.4666C7.80772 27.6149 7.85285 27.7632 7.88509 27.918C7.93022 28.0985 7.89798 27.9631 7.89154 27.918C7.89154 28.0405 7.89798 28.1565 7.89798 28.279C7.90443 28.7819 8.33642 29.2719 8.86512 29.2462C9.38092 29.2204 9.8387 28.8206 9.83225 28.279C9.80646 26.5511 8.72327 25.0552 7.09849 24.475C5.58331 23.9334 3.7651 24.4492 2.75283 25.6871C1.68254 26.996 1.48266 28.8593 2.35953 30.3293C3.2364 31.7929 4.93211 32.5151 6.60203 32.212C8.47827 31.8703 9.80646 30.1488 9.83225 28.279C9.8387 27.7761 9.38092 27.2861 8.86512 27.3119C8.33642 27.3312 7.91088 27.7374 7.89798 28.279Z" fill="#F78F1E"/>
<path d="M9.69042 35.9192C9.69042 38.0856 9.72911 40.252 9.69042 42.4119C9.69042 42.4313 9.69042 42.4571 9.69042 42.4764C9.69042 42.5344 9.65174 42.715 9.69042 42.528C9.67753 42.5989 9.65818 42.6698 9.63884 42.7343C9.60015 42.8826 9.74845 42.5538 9.62595 42.7795C9.58726 42.8504 9.54213 42.9278 9.49699 42.9987C9.52278 42.96 9.61305 42.8826 9.49055 42.9987C9.43252 43.0567 9.37449 43.1212 9.31002 43.1728C9.44541 43.0631 9.3358 43.1534 9.30357 43.1728C9.2262 43.2114 9.16172 43.2566 9.0779 43.2953C9.30357 43.1985 8.72973 43.3468 8.98764 43.3211C8.81355 43.3404 8.63302 43.3275 8.45894 43.3275C7.93668 43.3275 7.4918 43.7724 7.4918 44.2946C7.4918 45.4423 7.4918 46.59 7.4918 47.7312C7.4918 48.4791 7.4918 49.227 7.4918 49.9814C7.4918 50.2006 7.4918 50.4134 7.4918 50.6326C7.4918 50.6777 7.4918 50.7229 7.4918 50.768C7.4918 50.7744 7.4918 50.7809 7.4918 50.7873C7.4918 50.8196 7.4918 50.8454 7.4918 50.8776C7.51114 50.7615 7.5047 50.7615 7.47891 50.8711C7.47246 50.8969 7.45956 50.9227 7.45312 50.9485C7.49825 50.8454 7.4918 50.8454 7.44022 50.9421C7.43377 50.955 7.42733 50.9679 7.41443 50.9743C7.37575 51.0323 7.38219 51.0194 7.44022 50.9421C7.42088 50.9614 7.40154 50.9808 7.38219 51.0001C7.45956 50.9485 7.47246 50.9356 7.41443 50.9743C7.38219 51.013 7.20166 51.0775 7.38864 51.0065C7.33706 51.0259 7.27903 51.0388 7.22745 51.0517C7.40154 51.0065 7.16298 51.0452 7.0985 51.0452C6.78257 51.0452 6.46019 51.0452 6.14426 51.0452C5.74451 51.0452 5.33832 51.0452 4.93857 51.0452C4.81606 51.0452 4.69356 51.0452 4.57106 51.0452C4.53237 51.0452 4.49369 51.0452 4.46145 51.0452C4.42276 51.0452 4.27447 51.0323 4.38408 51.0452C4.52592 51.0646 4.26802 51.0065 4.26157 51.0065C4.48079 51.0904 4.26157 51.0065 4.26802 50.9936C4.24223 50.9808 4.22289 50.9614 4.1971 50.9485C4.28736 51.013 4.28736 51.013 4.20355 50.9356C4.20999 50.9485 4.21644 50.9614 4.22934 50.9679C4.26802 51.0259 4.26157 51.013 4.20355 50.9356C4.19065 50.9421 4.13907 50.8002 4.19065 50.9421C4.17131 50.8969 4.13907 50.6519 4.15197 50.8647C4.15197 50.8325 4.14552 50.8002 4.15197 50.7615C4.15841 50.6197 4.15197 50.4778 4.15197 50.3424C4.15197 49.6783 4.15197 49.0207 4.15197 48.3566C4.15197 46.9962 4.15197 45.6422 4.15197 44.2817C4.15197 43.7595 3.70708 43.3146 3.18483 43.3146C3.06878 43.3146 2.95272 43.3146 2.83666 43.3146C2.84311 43.3146 2.55942 43.2888 2.70126 43.3082C2.84311 43.3339 2.57231 43.2695 2.57231 43.2695C2.54008 43.263 2.39178 43.205 2.56587 43.2759C2.4885 43.2437 2.41757 43.1921 2.3402 43.1534C2.19191 43.076 2.29507 43.1212 2.33375 43.1534C2.28217 43.1083 2.23059 43.0567 2.17901 43.0116C2.14033 42.9729 2.04361 42.831 2.14677 42.9793C2.11454 42.9342 2.0823 42.8826 2.05651 42.8375C2.03072 42.7924 1.99848 42.7408 1.97914 42.6892C2.05651 42.8633 1.98559 42.6827 1.97914 42.6376C1.96624 42.586 1.94045 42.399 1.9598 42.5925C1.95335 42.5344 1.95335 42.4764 1.95335 42.4119C1.9469 42.0702 1.95335 41.7349 1.95335 41.3932C1.95335 39.9167 1.95335 38.4402 1.95335 36.9638C1.95335 36.6091 1.9469 36.2545 1.95335 35.8999C1.95335 35.8612 1.99848 35.6033 1.95335 35.8032C1.96624 35.7387 2.06296 35.4486 1.98559 35.6291C2.01138 35.5646 2.05006 35.5066 2.0823 35.4421C2.10164 35.397 2.2177 35.2551 2.10164 35.397C2.14033 35.3519 2.17256 35.3132 2.2177 35.2745C2.24349 35.2487 2.44336 35.1004 2.28217 35.21C2.32731 35.1778 2.37889 35.1455 2.42402 35.1198C2.42402 35.1198 2.66903 35.0101 2.54008 35.0617C2.42402 35.1069 2.92048 34.9972 2.66903 35.023C2.7464 35.0166 2.82377 35.0166 2.90114 35.0166C4.16486 35.0101 5.42858 35.0166 6.68586 35.0166C7.33706 35.0166 7.98182 35.0166 8.63302 35.0166C8.69105 35.0166 8.74263 35.0166 8.80066 35.0166C8.8329 35.0166 8.87158 35.0166 8.90382 35.0166C9.17462 35.0166 8.80066 34.9844 8.94895 35.023C8.97474 35.0295 9.2262 35.1004 9.11659 35.0617C8.98764 35.0166 9.23264 35.1198 9.23264 35.1198C9.27133 35.1455 9.46476 35.2874 9.31002 35.1584C9.35515 35.1971 9.39383 35.2294 9.43252 35.2745C9.45831 35.3003 9.6066 35.5002 9.49699 35.339C9.52923 35.3841 9.56147 35.4357 9.58726 35.4808C9.6195 35.5453 9.67753 35.7129 9.63239 35.5582C9.65174 35.6291 9.67108 35.6936 9.69042 35.7645C9.70332 35.8354 9.70332 35.8225 9.69042 35.7258C9.69042 35.8032 9.69042 35.8612 9.69042 35.9192C9.70332 36.4222 10.1289 36.9122 10.6576 36.8864C11.1734 36.8606 11.6376 36.4608 11.6247 35.9192C11.586 34.3654 10.361 33.1339 8.80066 33.0952C8.36867 33.0888 7.93024 33.0952 7.49825 33.0952C6.00886 33.0952 4.51948 33.0952 3.02364 33.0952C1.96624 33.0952 0.999109 33.5272 0.425276 34.4492C0.0319745 35.0746 0.012632 35.7581 0.012632 36.4608C0.012632 38.0276 0.012632 39.5944 0.012632 41.1611C0.012632 41.664 -0.0260534 42.1927 0.0319746 42.6956C0.135136 43.5661 0.586465 44.3333 1.32793 44.8104C1.89532 45.1779 2.52718 45.2489 3.18483 45.2489C2.86245 44.9265 2.54008 44.6041 2.2177 44.2817C2.2177 45.5326 2.2177 46.7898 2.2177 48.0407C2.2177 48.7757 2.2177 49.5172 2.2177 50.2522C2.2177 51.0323 2.28862 51.7738 2.89469 52.3605C3.62327 53.0698 4.5775 52.9795 5.50595 52.9795C5.92505 52.9795 6.34414 52.9795 6.75678 52.9795C7.08561 52.9795 7.41443 52.9924 7.73681 52.915C8.84579 52.6507 9.42607 51.6513 9.42607 50.5746C9.42607 49.9362 9.42607 49.2979 9.42607 48.6596C9.42607 47.2025 9.42607 45.7389 9.42607 44.2817C9.10369 44.6041 8.78131 44.9265 8.45894 45.2489C9.01987 45.2489 9.54213 45.1973 10.0579 44.9523C10.6318 44.675 11.1153 44.1786 11.3732 43.5918C11.6376 42.9987 11.6376 42.4119 11.6376 41.7801C11.6376 40.2649 11.6376 38.7433 11.6376 37.2281C11.6376 36.7897 11.6376 36.3448 11.6376 35.9064C11.6376 35.4034 11.1927 34.9134 10.6704 34.9392C10.1353 34.9779 9.69042 35.3777 9.69042 35.9192Z" fill="#F78F1E"/>
<path d="M24.1008 28.279C24.1008 28.3693 24.0944 28.4596 24.0879 28.5498C24.0879 28.5949 24.0492 28.7304 24.0879 28.5563C24.0557 28.6981 24.0299 28.84 23.9847 28.9754C23.9654 29.0269 23.9461 29.085 23.9267 29.1365C23.9912 28.9689 23.9396 29.1043 23.9203 29.1365C23.8365 29.2848 23.7591 29.4267 23.6624 29.5685C23.772 29.4073 23.5592 29.6846 23.5205 29.7233C23.4303 29.8135 23.34 29.8974 23.2433 29.9747C23.3916 29.8587 23.2433 29.9747 23.2046 29.9941C23.1466 30.0328 23.0885 30.0714 23.0241 30.1037C22.9725 30.1295 22.9209 30.1553 22.8758 30.181C22.6888 30.2842 22.9854 30.1553 22.792 30.2133C22.6566 30.2584 22.5212 30.2971 22.3793 30.3293C22.1988 30.3745 22.3342 30.3422 22.3793 30.3358C22.3084 30.3422 22.231 30.3487 22.1601 30.3551C22.0247 30.3616 21.8893 30.3551 21.7603 30.3487C21.4831 30.3358 21.8764 30.3745 21.7152 30.3422C21.6185 30.3229 21.5153 30.2971 21.4186 30.2713C21.3541 30.252 21.0769 30.1424 21.251 30.2197C21.122 30.1617 20.9995 30.0972 20.8835 30.0199C20.8383 29.9876 20.7932 29.9554 20.7416 29.9231C20.9157 30.0457 20.6965 29.8845 20.6771 29.8651C20.574 29.7684 20.4773 29.6717 20.387 29.5685C20.2129 29.3751 20.445 29.6652 20.3612 29.5298C20.3225 29.4718 20.2838 29.4138 20.2452 29.3558C20.2194 29.3106 20.1871 29.259 20.1613 29.2075C20.1613 29.2139 20.0453 28.9625 20.1033 29.0914C20.1613 29.2204 20.0582 28.9625 20.0646 28.9689C20.0453 28.9173 20.0324 28.8593 20.0131 28.8013C19.9937 28.7304 19.9808 28.6594 19.9679 28.5885C19.955 28.5176 19.955 28.5305 19.9679 28.6272C19.9615 28.5821 19.9615 28.5369 19.955 28.4982C19.9421 28.3628 19.9421 28.2274 19.955 28.0985C19.955 28.1049 19.9937 27.8212 19.9679 27.9631C19.9421 28.1049 20.0002 27.8277 20.0002 27.8341C20.0324 27.7116 20.0711 27.5891 20.1098 27.4666C20.1613 27.3183 20.0002 27.6536 20.1291 27.4279C20.1678 27.357 20.2065 27.2796 20.2516 27.2087C20.2774 27.1636 20.3161 27.112 20.3419 27.0669C20.4708 26.8412 20.2194 27.1894 20.3935 26.996C20.4708 26.9121 20.5418 26.8283 20.6256 26.7509C20.6836 26.6929 20.7481 26.6349 20.8125 26.5833C20.7803 26.6091 20.6707 26.6736 20.819 26.5833C20.9544 26.5059 21.0833 26.4221 21.2187 26.3512C21.3606 26.2803 21.006 26.4157 21.2639 26.3319C21.3155 26.3125 21.3735 26.2932 21.4251 26.2803C21.496 26.2609 21.5605 26.2416 21.6314 26.2287C21.683 26.2158 21.8699 26.19 21.6765 26.2094C21.8119 26.19 21.9409 26.19 22.0763 26.19C22.1536 26.19 22.2246 26.1965 22.3019 26.2029C22.5083 26.2158 22.173 26.1642 22.3922 26.2158C22.534 26.248 22.6694 26.2867 22.8048 26.3319C23.0563 26.4092 22.6566 26.2416 22.8887 26.3641C22.9596 26.4028 23.037 26.4415 23.1079 26.4866C23.153 26.5124 23.2046 26.5511 23.2497 26.5769C23.4367 26.6865 23.1724 26.493 23.3206 26.6284C23.4432 26.7445 23.5592 26.8606 23.6753 26.9831C23.7011 27.0153 23.7784 27.1314 23.6817 26.9831C23.7268 27.054 23.7784 27.1185 23.8171 27.1958C23.8558 27.2539 23.8816 27.3183 23.9203 27.3828C23.9396 27.4215 23.959 27.4602 23.9783 27.4989C23.9396 27.4086 23.9396 27.4022 23.959 27.4666C24.0105 27.6149 24.0557 27.7632 24.0879 27.918C24.133 28.0985 24.1008 27.9631 24.0944 27.918C24.0944 28.0405 24.1008 28.1565 24.1008 28.279C24.1073 28.7819 24.5392 29.2719 25.0679 29.2462C25.5837 29.2204 26.0415 28.8206 26.0351 28.279C26.0093 26.5511 24.9261 25.0552 23.3013 24.475C21.7861 23.9334 19.9679 24.4492 18.9557 25.6871C17.8854 26.996 17.6855 28.8593 18.5623 30.3293C19.4392 31.7929 21.1349 32.5151 22.8048 32.212C24.6811 31.8703 26.0093 30.1488 26.0351 28.279C26.0415 27.7761 25.5837 27.2861 25.0679 27.3119C24.5392 27.3312 24.1073 27.7374 24.1008 28.279Z" fill="#F78F1E"/>
<path d="M24.6552 36.1772C25.2871 38.8207 25.9576 41.4642 26.5573 44.1141C26.5573 44.127 26.5637 44.1399 26.5637 44.1528C26.5637 44.1593 26.5573 44.069 26.5573 44.069C26.5637 44.127 26.5637 44.1851 26.5573 44.2431C26.5766 44.127 26.5766 44.127 26.5573 44.2366C26.5444 44.2689 26.4412 44.5074 26.5379 44.3269C26.5186 44.3591 26.3703 44.5913 26.4219 44.5203C26.5057 44.4172 26.3122 44.6299 26.3187 44.617C26.2736 44.6557 26.2284 44.6944 26.1833 44.7331C26.2607 44.6686 26.2542 44.6751 26.1575 44.7395C26.0801 44.7782 26.0028 44.8298 25.9189 44.8685C26.0995 44.7911 25.8287 44.8814 25.8158 44.8878C25.5772 44.9652 25.977 44.9007 25.7255 44.9072C25.6739 44.9072 25.6288 44.9072 25.5772 44.9072C25.3774 44.9072 25.171 44.9072 24.9712 44.9072C24.3973 44.9072 24.0685 45.3521 24.004 45.8743C23.888 46.777 23.7719 47.6796 23.6494 48.5823C23.5785 49.1432 23.5011 49.7042 23.4302 50.2651C23.4108 50.4134 23.3851 50.5617 23.3722 50.7164C23.3722 50.7358 23.3657 50.7551 23.3657 50.7745C23.3593 50.8389 23.327 50.9292 23.3722 50.7745C23.3593 50.8131 23.3593 50.8647 23.3399 50.897C23.2626 51.0195 23.4173 50.7745 23.3335 50.897C23.2303 51.0517 23.327 50.955 23.3141 50.9357C23.3206 50.9421 23.14 51.0839 23.3206 50.9485C23.2883 50.9743 23.2497 50.9937 23.2174 51.013C23.1014 51.0968 23.3399 50.9357 23.2174 51.0195C23.1852 51.0388 23.1336 51.0388 23.0949 51.0517C23.2561 51.0001 23.082 51.0453 23.0111 51.0453C22.7596 51.0453 22.5146 51.0453 22.2632 51.0453C21.9537 51.0453 21.6378 51.0453 21.3283 51.0453C21.2251 51.0453 21.1284 51.0453 21.0252 51.0453C20.9866 51.0453 20.7802 51.0324 20.8834 51.0453C20.9866 51.0646 20.6577 50.9292 20.8447 51.0324C20.7996 51.0066 20.748 50.9808 20.7029 50.9421C20.8254 51.0324 20.7093 50.9357 20.7093 50.9292C20.7029 50.9421 20.8125 51.0517 20.7351 50.9614C20.7158 50.9421 20.6319 50.7874 20.6835 50.897C20.7351 51.0066 20.6642 50.8583 20.6706 50.8583C20.6513 50.7616 20.6448 50.7487 20.6577 50.8196C20.6642 50.8776 20.6642 50.8776 20.6642 50.8196C20.6577 50.7293 20.6448 50.6391 20.6319 50.5488C20.5675 50.0523 20.503 49.5494 20.4385 49.053C20.3031 47.9956 20.1613 46.9382 20.0259 45.8743C19.9614 45.3585 19.639 44.9072 19.0587 44.9072C18.9298 44.9072 18.7944 44.9072 18.6654 44.9072C18.5881 44.9072 18.5171 44.9072 18.4398 44.9072C18.3818 44.9072 18.1625 44.8878 18.2657 44.9072C18.414 44.933 18.1367 44.8749 18.1432 44.8749C18.0852 44.8621 18.0336 44.8427 17.9756 44.8234C18.1496 44.8814 17.8724 44.7589 17.8144 44.7267C17.5887 44.6106 17.8788 44.7976 17.7628 44.7009C17.7112 44.6557 17.6596 44.6041 17.608 44.5526C17.5758 44.5268 17.5049 44.4107 17.6016 44.5526C17.5565 44.4816 17.5113 44.4107 17.4726 44.3333C17.5694 44.5332 17.4533 44.1012 17.4726 44.3398C17.4662 44.2818 17.4662 44.2237 17.4662 44.1657C17.4662 44.1915 17.4211 44.3656 17.4662 44.1528C17.4726 44.1335 17.4791 44.1077 17.4791 44.0883C17.5113 43.9529 17.5436 43.824 17.5758 43.6886C17.8853 42.3862 18.2012 41.0902 18.5107 39.7878C18.7879 38.6402 19.0587 37.4925 19.336 36.3448C19.3618 36.2288 19.3876 36.1127 19.4198 35.9967C19.452 35.8806 19.4907 35.771 19.5359 35.6549C19.4649 35.829 19.6197 35.5002 19.6455 35.4615C19.6842 35.4035 19.7164 35.3454 19.7615 35.2874C19.7357 35.3261 19.639 35.4099 19.7615 35.2939C19.8002 35.2616 19.8389 35.2165 19.8711 35.1778C20.0065 35.0295 19.7422 35.2294 19.9227 35.1391C19.9679 35.1133 20.013 35.0875 20.0581 35.0618C19.884 35.1585 20.0323 35.0811 20.0839 35.0553C20.1355 35.036 20.316 35.0102 20.1097 35.036C20.1677 35.0295 20.2258 35.0295 20.2838 35.0295C20.3225 35.0295 20.3612 35.0295 20.4063 35.0295C20.6771 35.0295 20.9479 35.0295 21.2187 35.0295C21.9859 35.0295 22.7467 35.0295 23.514 35.0295C23.5785 35.0295 23.643 35.0295 23.7074 35.0295C23.7397 35.0295 23.7719 35.0295 23.7977 35.0295C24.0298 35.0295 23.6559 34.9715 23.8686 35.0424C23.9073 35.0553 23.9718 35.0747 24.0169 35.0875C23.8428 35.0553 23.9847 35.0747 24.0621 35.1198C24.1072 35.1456 24.1459 35.1714 24.191 35.2036C24.0105 35.0747 24.1846 35.2101 24.2232 35.2487C24.2619 35.2874 24.2942 35.3261 24.3264 35.3648C24.191 35.1972 24.3328 35.3841 24.3586 35.4293C24.3973 35.4873 24.4231 35.5518 24.4554 35.6098C24.4747 35.6485 24.494 35.6872 24.5069 35.7259C24.4682 35.642 24.4682 35.6291 24.4876 35.6936C24.5714 35.8548 24.6165 36.016 24.6552 36.1772C24.7713 36.6865 25.358 36.9896 25.848 36.8542C26.3703 36.7123 26.6411 36.1772 26.525 35.6614C26.2026 34.2752 25.242 33.1275 23.7397 33.0953C23.1723 33.0824 22.5985 33.0953 22.0246 33.0953C21.4508 33.0953 20.8834 33.0824 20.3096 33.0953C18.8137 33.1275 17.8659 34.2945 17.5242 35.6614C16.9053 38.1243 16.3379 40.6067 15.7511 43.0761C15.5706 43.8369 15.4352 44.559 15.8156 45.3069C16.1702 46.0097 16.8859 46.5255 17.6338 46.7383C18.1045 46.8672 18.5881 46.8415 19.0652 46.8415C18.7428 46.5191 18.4204 46.1967 18.0981 45.8743C18.227 46.8737 18.356 47.8666 18.4849 48.866C18.5558 49.414 18.6268 49.9685 18.6977 50.5166C18.7106 50.6326 18.7235 50.7487 18.7364 50.8647C18.8008 51.5611 19.0974 52.1478 19.6648 52.5669C20.2902 53.0311 21.0317 52.9795 21.7603 52.9795C22.347 52.9795 22.9918 53.0505 23.5656 52.928C24.1717 52.799 24.7197 52.3864 25.0227 51.8383C25.2226 51.4772 25.2613 51.1162 25.3064 50.7164C25.3516 50.2716 25.4225 49.8267 25.4805 49.3818C25.6353 48.2148 25.7835 47.0478 25.9383 45.8743C25.6159 46.1967 25.2935 46.5191 24.9712 46.8415C25.5192 46.8415 26.0672 46.8672 26.583 46.6674C27.4341 46.345 28.1949 45.6615 28.4142 44.7524C28.5818 44.069 28.3755 43.4307 28.2143 42.773C27.7758 40.9355 27.3374 39.0979 26.8925 37.2604C26.7636 36.7252 26.6346 36.1901 26.5057 35.6549C26.3832 35.1456 25.8093 34.8425 25.3129 34.9779C24.81 35.1262 24.5327 35.6678 24.6552 36.1772Z" fill="#F78F1E"/>
<path d="M40.2967 28.279C40.2967 28.3693 40.2903 28.4596 40.2838 28.5498C40.2838 28.5949 40.2451 28.7304 40.2838 28.5563C40.2516 28.6981 40.2258 28.84 40.1807 28.9754C40.1613 29.0269 40.142 29.085 40.1226 29.1365C40.1871 28.9689 40.1355 29.1043 40.1162 29.1365C40.0324 29.2848 39.955 29.4267 39.8583 29.5685C39.9679 29.4073 39.7551 29.6846 39.7164 29.7233C39.6262 29.8135 39.5359 29.8974 39.4392 29.9747C39.5875 29.8587 39.4392 29.9747 39.4005 29.9941C39.3425 30.0328 39.2845 30.0714 39.22 30.1037C39.1684 30.1295 39.1168 30.1553 39.0717 30.181C38.8847 30.2842 39.1813 30.1553 38.9879 30.2133C38.8525 30.2584 38.7171 30.2971 38.5752 30.3293C38.3947 30.3745 38.5301 30.3422 38.5752 30.3358C38.5043 30.3422 38.4269 30.3487 38.356 30.3551C38.2206 30.3616 38.0852 30.3551 37.9563 30.3487C37.679 30.3358 38.0723 30.3745 37.9111 30.3422C37.8144 30.3229 37.7113 30.2971 37.6145 30.2713C37.5501 30.252 37.2728 30.1424 37.4469 30.2197C37.318 30.1617 37.1954 30.0972 37.0794 30.0199C37.0343 29.9876 36.9891 29.9554 36.9375 29.9231C37.1116 30.0457 36.8924 29.8845 36.8731 29.8651C36.7699 29.7684 36.6732 29.6717 36.5829 29.5685C36.4088 29.3751 36.641 29.6652 36.5571 29.5298C36.5185 29.4718 36.4798 29.4138 36.4411 29.3558C36.4153 29.3106 36.3831 29.259 36.3573 29.2075C36.3573 29.2139 36.2412 28.9625 36.2992 29.0914C36.3573 29.2204 36.2541 28.9625 36.2606 28.9689C36.2412 28.9173 36.2283 28.8593 36.209 28.8013C36.1896 28.7304 36.1767 28.6594 36.1638 28.5885C36.1509 28.5176 36.1509 28.5305 36.1638 28.6272C36.1574 28.5821 36.1574 28.5369 36.1509 28.4982C36.1381 28.3628 36.1381 28.2274 36.1509 28.0985C36.1509 28.1049 36.1896 27.8212 36.1638 27.9631C36.138 28.1049 36.1961 27.8277 36.1961 27.8341C36.2283 27.7116 36.267 27.5891 36.3057 27.4666C36.3573 27.3183 36.1961 27.6536 36.325 27.4279C36.3637 27.357 36.4024 27.2796 36.4475 27.2087C36.4733 27.1636 36.512 27.112 36.5378 27.0669C36.6668 26.8412 36.4153 27.1894 36.5894 26.996C36.6668 26.9121 36.7377 26.8283 36.8215 26.7509C36.8795 26.6929 36.944 26.6349 37.0085 26.5833C36.9762 26.6091 36.8666 26.6736 37.0149 26.5833C37.1503 26.5059 37.2793 26.4221 37.4147 26.3512C37.5565 26.2803 37.2019 26.4157 37.4598 26.3319C37.5114 26.3125 37.5694 26.2932 37.621 26.2803C37.6919 26.2609 37.7564 26.2416 37.8273 26.2287C37.8789 26.2158 38.0659 26.19 37.8724 26.2094C38.0078 26.19 38.1368 26.19 38.2722 26.19C38.3496 26.19 38.4205 26.1965 38.4979 26.2029C38.7042 26.2158 38.3689 26.1642 38.5881 26.2158C38.73 26.248 38.8654 26.2867 39.0008 26.3319C39.2522 26.4092 38.8525 26.2416 39.0846 26.3641C39.1555 26.4028 39.2329 26.4415 39.3038 26.4866C39.3489 26.5124 39.4005 26.5511 39.4456 26.5769C39.6326 26.6865 39.3683 26.493 39.5166 26.6284C39.6391 26.7445 39.7551 26.8606 39.8712 26.9831C39.897 27.0153 39.9744 27.1314 39.8776 26.9831C39.9228 27.054 39.9743 27.1185 40.013 27.1958C40.0517 27.2539 40.0775 27.3183 40.1162 27.3828C40.1355 27.4215 40.1549 27.4602 40.1742 27.4989C40.1355 27.4086 40.1355 27.4022 40.1549 27.4666C40.2065 27.6149 40.2516 27.7632 40.2838 27.918C40.329 28.0985 40.2967 27.9631 40.2903 27.918C40.2967 28.0405 40.2967 28.1565 40.2967 28.279C40.3032 28.7819 40.7352 29.2719 41.2639 29.2462C41.7797 29.2204 42.2374 28.8206 42.231 28.279C42.2052 26.5511 41.122 25.0552 39.4972 24.475C37.9821 23.9334 36.1638 24.4492 35.1516 25.6871C34.0813 26.996 33.8814 28.8593 34.7583 30.3293C35.6351 31.7929 37.3308 32.5151 39.0008 32.212C40.877 31.8703 42.2052 30.1488 42.231 28.279C42.2374 27.7761 41.7797 27.2861 41.2639 27.3119C40.7352 27.3312 40.3096 27.7374 40.2967 28.279Z" fill="#F78F1E"/>
<path d="M42.0895 35.9192C42.0895 38.0856 42.1282 40.252 42.0895 42.4119C42.0895 42.4313 42.0895 42.4571 42.0895 42.4764C42.0895 42.5344 42.0508 42.715 42.0895 42.528C42.0766 42.5989 42.0573 42.6698 42.0379 42.7343C41.9993 42.8826 42.1476 42.5538 42.0251 42.7795C41.9864 42.8504 41.9412 42.9278 41.8961 42.9987C41.9219 42.96 42.0122 42.8826 41.8897 42.9987C41.8316 43.0567 41.7736 43.1212 41.7091 43.1728C41.8445 43.0631 41.7349 43.1534 41.7027 43.1728C41.6253 43.2114 41.5608 43.2566 41.477 43.2953C41.7027 43.1985 41.1288 43.3468 41.3867 43.3211C41.2127 43.3404 41.0321 43.3275 40.858 43.3275C40.3358 43.3275 39.8909 43.7724 39.8909 44.2946C39.8909 45.4423 39.8909 46.59 39.8909 47.7312C39.8909 48.4791 39.8909 49.227 39.8909 49.9814C39.8909 50.2006 39.8909 50.4134 39.8909 50.6326C39.8909 50.6777 39.8909 50.7229 39.8909 50.768C39.8909 50.7744 39.8909 50.7809 39.8909 50.7873C39.8909 50.8196 39.8909 50.8454 39.8909 50.8776C39.9103 50.7615 39.9038 50.7615 39.878 50.8711C39.8716 50.8969 39.8587 50.9227 39.8522 50.9485C39.8974 50.8454 39.8909 50.8454 39.8393 50.9421C39.8329 50.955 39.8264 50.9679 39.8135 50.9743C39.7749 51.0323 39.7813 51.0194 39.8393 50.9421C39.82 50.9614 39.8006 50.9808 39.7813 51.0001C39.8587 50.9485 39.8716 50.9356 39.8135 50.9743C39.7813 51.013 39.6008 51.0775 39.7877 51.0065C39.7362 51.0259 39.6781 51.0388 39.6266 51.0517C39.8006 51.0065 39.5621 51.0452 39.4976 51.0452C39.1817 51.0452 38.8593 51.0452 38.5434 51.0452C38.1436 51.0452 37.7374 51.0452 37.3377 51.0452C37.2152 51.0452 37.0927 51.0452 36.9702 51.0452C36.9315 51.0452 36.8928 51.0452 36.8606 51.0452C36.8219 51.0452 36.6736 51.0323 36.7832 51.0452C36.925 51.0646 36.6671 51.0065 36.6607 51.0065C36.8799 51.0904 36.6607 51.0065 36.6671 50.9936C36.6413 50.9808 36.622 50.9614 36.5962 50.9485C36.6865 51.013 36.6865 51.013 36.6027 50.9356C36.6091 50.9485 36.6155 50.9614 36.6284 50.9679C36.6671 51.0259 36.6607 51.013 36.6027 50.9356C36.5898 50.9421 36.5382 50.8002 36.5898 50.9421C36.5704 50.8969 36.5382 50.6519 36.5511 50.8647C36.5511 50.8325 36.5446 50.8002 36.5511 50.7615C36.5575 50.6197 36.5511 50.4778 36.5511 50.3424C36.5511 49.6783 36.5511 49.0207 36.5511 48.3566C36.5511 46.9962 36.5511 45.6422 36.5511 44.2817C36.5511 43.7595 36.1062 43.3146 35.5839 43.3146C35.4679 43.3146 35.3518 43.3146 35.2358 43.3146C35.2422 43.3146 34.9585 43.2888 35.1004 43.3082C35.2422 43.3339 34.9714 43.2695 34.9714 43.2695C34.9392 43.263 34.7909 43.205 34.965 43.2759C34.8876 43.2437 34.8167 43.1921 34.7393 43.1534C34.591 43.076 34.6942 43.1212 34.7329 43.1534C34.6813 43.1083 34.6297 43.0567 34.5781 43.0116C34.5394 42.9729 34.4427 42.831 34.5459 42.9793C34.5136 42.9342 34.4814 42.8826 34.4556 42.8375C34.4298 42.7924 34.3976 42.7408 34.3782 42.6892C34.4556 42.8633 34.3847 42.6827 34.3782 42.6376C34.3654 42.586 34.3396 42.399 34.3589 42.5925C34.3525 42.5344 34.3525 42.4764 34.3525 42.4119C34.346 42.0702 34.3525 41.7349 34.3525 41.3932C34.3525 39.9167 34.3525 38.4402 34.3525 36.9638C34.3525 36.6091 34.346 36.2545 34.3525 35.8999C34.3525 35.8612 34.3976 35.6033 34.3525 35.8032C34.3654 35.7387 34.4621 35.4486 34.3847 35.6291C34.4105 35.5646 34.4492 35.5066 34.4814 35.4421C34.5007 35.397 34.6168 35.2551 34.5007 35.397C34.5394 35.3519 34.5717 35.3132 34.6168 35.2745C34.6426 35.2487 34.8425 35.1004 34.6813 35.21C34.7264 35.1778 34.778 35.1455 34.8231 35.1198C34.8231 35.1198 35.0681 35.0101 34.9392 35.0617C34.8231 35.1069 35.3196 34.9972 35.0681 35.023C35.1455 35.0166 35.2229 35.0166 35.3002 35.0166C36.564 35.0101 37.8277 35.0166 39.085 35.0166C39.7362 35.0166 40.3809 35.0166 41.0321 35.0166C41.0902 35.0166 41.1417 35.0166 41.1998 35.0166C41.232 35.0166 41.2707 35.0166 41.3029 35.0166C41.5737 35.0166 41.1998 34.9844 41.3481 35.023C41.3738 35.0295 41.6253 35.1004 41.5157 35.0617C41.3867 35.0166 41.6318 35.1198 41.6318 35.1198C41.6704 35.1455 41.8639 35.2874 41.7091 35.1584C41.7543 35.1971 41.7929 35.2294 41.8316 35.2745C41.8574 35.3003 42.0057 35.5002 41.8961 35.339C41.9283 35.3841 41.9606 35.4357 41.9864 35.4808C42.0186 35.5453 42.0766 35.7129 42.0315 35.5582C42.0508 35.6291 42.0702 35.6936 42.0895 35.7645C42.1024 35.8354 42.1024 35.8225 42.0895 35.7258C42.0831 35.8032 42.0895 35.8612 42.0895 35.9192C42.1024 36.4222 42.528 36.9122 43.0567 36.8864C43.5725 36.8606 44.0367 36.4608 44.0238 35.9192C43.9851 34.3654 42.7601 33.1339 41.1998 33.0952C40.7678 33.0888 40.3293 33.0952 39.8974 33.0952C38.408 33.0952 36.9186 33.0952 35.4227 33.0952C34.3653 33.0952 33.3982 33.5272 32.8244 34.4492C32.4311 35.0746 32.4117 35.7581 32.4117 36.4608C32.4117 38.0276 32.4117 39.5944 32.4117 41.1611C32.4117 41.664 32.3731 42.1927 32.4311 42.6956C32.5342 43.5661 32.9856 44.3333 33.727 44.8104C34.2944 45.1779 34.9263 45.2489 35.5839 45.2489C35.2616 44.9265 34.9392 44.6041 34.6168 44.2817C34.6168 45.5326 34.6168 46.7898 34.6168 48.0407C34.6168 48.7757 34.6168 49.5172 34.6168 50.2522C34.6168 51.0323 34.6877 51.7738 35.2938 52.3605C36.0224 53.0698 36.9766 52.9795 37.9051 52.9795C38.3242 52.9795 38.7432 52.9795 39.1559 52.9795C39.4847 52.9795 39.8135 52.9924 40.1359 52.915C41.2449 52.6507 41.8252 51.6513 41.8252 50.5746C41.8252 49.9362 41.8252 49.2979 41.8252 48.6596C41.8252 47.2025 41.8252 45.7389 41.8252 44.2817C41.5028 44.6041 41.1804 44.9265 40.858 45.2489C41.419 45.2489 41.9412 45.1973 42.457 44.9523C43.0309 44.675 43.5144 44.1786 43.7723 43.5918C44.0367 42.9987 44.0367 42.4119 44.0367 41.7801C44.0367 40.2649 44.0367 38.7433 44.0367 37.2281C44.0367 36.7897 44.0367 36.3448 44.0367 35.9064C44.0367 35.4034 43.5918 34.9134 43.0696 34.9392C42.5344 34.9779 42.0895 35.3777 42.0895 35.9192Z" fill="#F78F1E"/>
<path d="M56.4995 28.279C56.4995 28.3693 56.493 28.4596 56.4866 28.5498C56.4866 28.5949 56.4479 28.7304 56.4866 28.5563C56.4544 28.6981 56.4286 28.84 56.3834 28.9754C56.3641 29.0269 56.3447 29.085 56.3254 29.1365C56.3899 28.9689 56.3383 29.1043 56.319 29.1365C56.2351 29.2848 56.1578 29.4267 56.0611 29.5685C56.1707 29.4073 55.9579 29.6846 55.9192 29.7233C55.8289 29.8135 55.7387 29.8974 55.642 29.9747C55.7903 29.8587 55.642 29.9747 55.6033 29.9941C55.5452 30.0328 55.4872 30.0714 55.4227 30.1037C55.3712 30.1295 55.3196 30.1553 55.2745 30.181C55.0875 30.2842 55.3841 30.1553 55.1906 30.2133C55.0552 30.2584 54.9198 30.2971 54.778 30.3293C54.5975 30.3745 54.7329 30.3422 54.778 30.3358C54.7071 30.3422 54.6297 30.3487 54.5588 30.3551C54.4234 30.3616 54.288 30.3551 54.159 30.3487C53.8818 30.3358 54.2751 30.3745 54.1139 30.3422C54.0172 30.3229 53.914 30.2971 53.8173 30.2713C53.7528 30.252 53.4756 30.1424 53.6497 30.2197C53.5207 30.1617 53.3982 30.0972 53.2822 30.0199C53.237 29.9876 53.1919 29.9554 53.1403 29.9231C53.3144 30.0457 53.0952 29.8845 53.0758 29.8651C52.9727 29.7684 52.876 29.6717 52.7857 29.5685C52.6116 29.3751 52.8437 29.6652 52.7599 29.5298C52.7212 29.4718 52.6825 29.4138 52.6438 29.3558C52.6181 29.3106 52.5858 29.259 52.56 29.2075C52.56 29.2139 52.444 28.9625 52.502 29.0914C52.56 29.2204 52.4569 28.9625 52.4633 28.9689C52.444 28.9173 52.4311 28.8593 52.4117 28.8013C52.3924 28.7304 52.3795 28.6594 52.3666 28.5885C52.3537 28.5176 52.3537 28.5305 52.3666 28.6272C52.3602 28.5821 52.3602 28.5369 52.3537 28.4982C52.3408 28.3628 52.3408 28.2274 52.3537 28.0985C52.3537 28.1049 52.3924 27.8212 52.3666 27.9631C52.3408 28.1049 52.3988 27.8277 52.3988 27.8341C52.4311 27.7116 52.4698 27.5891 52.5084 27.4666C52.56 27.3183 52.3988 27.6536 52.5278 27.4279C52.5665 27.357 52.6052 27.2796 52.6503 27.2087C52.6761 27.1636 52.7148 27.112 52.7406 27.0669C52.8695 26.8412 52.6181 27.1894 52.7921 26.996C52.8695 26.9121 52.9404 26.8283 53.0243 26.7509C53.0823 26.6929 53.1468 26.6349 53.2112 26.5833C53.179 26.6091 53.0694 26.6736 53.2177 26.5833C53.3531 26.5059 53.482 26.4221 53.6174 26.3512C53.7593 26.2803 53.4047 26.4157 53.6626 26.3319C53.7141 26.3125 53.7722 26.2932 53.8237 26.2803C53.8947 26.2609 53.9591 26.2416 54.0301 26.2287C54.0817 26.2158 54.2686 26.19 54.0752 26.2094C54.2106 26.19 54.3396 26.19 54.475 26.19C54.5523 26.19 54.6232 26.1965 54.7006 26.2029C54.9069 26.2158 54.5717 26.1642 54.7909 26.2158C54.9327 26.248 55.0681 26.2867 55.2035 26.3319C55.455 26.4092 55.0552 26.2416 55.2873 26.3641C55.3583 26.4028 55.4356 26.4415 55.5066 26.4866C55.5517 26.5124 55.6033 26.5511 55.6484 26.5769C55.8354 26.6865 55.571 26.493 55.7193 26.6284C55.8418 26.7445 55.9579 26.8606 56.0739 26.9831C56.0997 27.0153 56.1771 27.1314 56.0804 26.9831C56.1255 27.054 56.1771 27.1185 56.2158 27.1958C56.2545 27.2539 56.2803 27.3183 56.319 27.3828C56.3383 27.4215 56.3576 27.4602 56.377 27.4989C56.3383 27.4086 56.3383 27.4022 56.3576 27.4666C56.4092 27.6149 56.4544 27.7632 56.4866 27.918C56.5317 28.0985 56.4995 27.9631 56.493 27.918C56.493 28.0405 56.4995 28.1565 56.4995 28.279C56.5059 28.7819 56.9379 29.2719 57.4666 29.2462C57.9824 29.2204 58.4402 28.8206 58.4338 28.279C58.408 26.5511 57.3248 25.0552 55.7 24.475C54.1848 23.9334 52.3666 24.4492 51.3543 25.6871C50.284 26.996 50.0842 28.8593 50.961 30.3293C51.8379 31.7929 53.5336 32.5151 55.2035 32.212C57.0798 31.8703 58.408 30.1488 58.4338 28.279C58.4402 27.7761 57.9824 27.2861 57.4666 27.3119C56.9379 27.3312 56.5059 27.7374 56.4995 28.279Z" fill="#F78F1E"/>
<path d="M57.054 36.1772C57.6858 38.8207 58.3564 41.4642 58.956 44.1141C58.956 44.127 58.9624 44.1399 58.9624 44.1528C58.9624 44.1593 58.956 44.069 58.956 44.069C58.9624 44.127 58.9624 44.1851 58.956 44.2431C58.9753 44.127 58.9753 44.127 58.956 44.2366C58.9431 44.2689 58.8399 44.5074 58.9367 44.3269C58.9173 44.3591 58.769 44.5913 58.8206 44.5203C58.9044 44.4172 58.711 44.6299 58.7174 44.617C58.6723 44.6557 58.6272 44.6944 58.582 44.7331C58.6594 44.6686 58.653 44.6751 58.5563 44.7395C58.4789 44.7782 58.4015 44.8298 58.3177 44.8685C58.4982 44.7911 58.2274 44.8814 58.2145 44.8878C57.976 44.9652 58.3757 44.9007 58.1243 44.9072C58.0727 44.9072 58.0276 44.9072 57.976 44.9072C57.7761 44.9072 57.5698 44.9072 57.3699 44.9072C56.7961 44.9072 56.4672 45.3521 56.4028 45.8743C56.2867 46.777 56.1707 47.6796 56.0481 48.5823C55.9772 49.1432 55.8999 49.7042 55.8289 50.2651C55.8096 50.4134 55.7838 50.5617 55.7709 50.7164C55.7709 50.7358 55.7645 50.7551 55.7645 50.7745C55.758 50.8389 55.7258 50.9292 55.7709 50.7745C55.758 50.8131 55.758 50.8647 55.7387 50.897C55.6613 51.0195 55.816 50.7745 55.7322 50.897C55.6291 51.0517 55.7258 50.955 55.7129 50.9357C55.7193 50.9421 55.5388 51.0839 55.7193 50.9485C55.6871 50.9743 55.6484 50.9937 55.6162 51.013C55.5001 51.0968 55.7387 50.9357 55.6162 51.0195C55.5839 51.0388 55.5323 51.0388 55.4937 51.0517C55.6549 51.0001 55.4808 51.0453 55.4098 51.0453C55.1584 51.0453 54.9134 51.0453 54.6619 51.0453C54.3524 51.0453 54.0365 51.0453 53.727 51.0453C53.6239 51.0453 53.5272 51.0453 53.424 51.0453C53.3853 51.0453 53.179 51.0324 53.2821 51.0453C53.3853 51.0646 53.0565 50.9292 53.2435 51.0324C53.1983 51.0066 53.1467 50.9808 53.1016 50.9421C53.2241 51.0324 53.1081 50.9357 53.1081 50.9292C53.1016 50.9421 53.2112 51.0517 53.1339 50.9614C53.1145 50.9421 53.0307 50.7874 53.0823 50.897C53.1339 51.0066 53.0629 50.8583 53.0694 50.8583C53.05 50.7616 53.0436 50.7487 53.0565 50.8196C53.0629 50.8776 53.0629 50.8776 53.0629 50.8196C53.0565 50.7293 53.0436 50.6391 53.0307 50.5488C52.9662 50.0523 52.9017 49.5494 52.8373 49.053C52.7019 47.9956 52.56 46.9382 52.4246 45.8743C52.3601 45.3585 52.0378 44.9072 51.4575 44.9072C51.3285 44.9072 51.1931 44.9072 51.0642 44.9072C50.9868 44.9072 50.9159 44.9072 50.8385 44.9072C50.7805 44.9072 50.5613 44.8878 50.6644 44.9072C50.8127 44.933 50.5355 44.8749 50.5419 44.8749C50.4839 44.8621 50.4323 44.8427 50.3743 44.8234C50.5484 44.8814 50.2711 44.7589 50.2131 44.7267C49.9874 44.6106 50.2776 44.7976 50.1615 44.7009C50.1099 44.6557 50.0584 44.6041 50.0068 44.5526C49.9745 44.5268 49.9036 44.4107 50.0003 44.5526C49.9552 44.4816 49.9101 44.4107 49.8714 44.3333C49.9681 44.5332 49.852 44.1012 49.8714 44.3398C49.8649 44.2818 49.8649 44.2237 49.8649 44.1657C49.8649 44.1915 49.8198 44.3656 49.8649 44.1528C49.8714 44.1335 49.8778 44.1077 49.8778 44.0883C49.9101 43.9529 49.9423 43.824 49.9745 43.6886C50.284 42.3862 50.6 41.0902 50.9094 39.7878C51.1867 38.6402 51.4575 37.4925 51.7347 36.3448C51.7605 36.2288 51.7863 36.1127 51.8186 35.9967C51.8508 35.8806 51.8895 35.771 51.9346 35.6549C51.8637 35.829 52.0184 35.5002 52.0442 35.4615C52.0829 35.4035 52.1151 35.3454 52.1603 35.2874C52.1345 35.3261 52.0378 35.4099 52.1603 35.2939C52.199 35.2616 52.2376 35.2165 52.2699 35.1778C52.4053 35.0295 52.1409 35.2294 52.3215 35.1391C52.3666 35.1133 52.4117 35.0875 52.4569 35.0618C52.2828 35.1585 52.4311 35.0811 52.4826 35.0553C52.5342 35.036 52.7148 35.0102 52.5084 35.036C52.5665 35.0295 52.6245 35.0295 52.6825 35.0295C52.7212 35.0295 52.7599 35.0295 52.805 35.0295C53.0758 35.0295 53.3466 35.0295 53.6174 35.0295C54.3847 35.0295 55.1455 35.0295 55.9128 35.0295C55.9772 35.0295 56.0417 35.0295 56.1062 35.0295C56.1384 35.0295 56.1707 35.0295 56.1964 35.0295C56.4286 35.0295 56.0546 34.9715 56.2674 35.0424C56.3061 35.0553 56.3705 35.0747 56.4157 35.0875C56.2416 35.0553 56.3834 35.0747 56.4608 35.1198C56.5059 35.1456 56.5446 35.1714 56.5897 35.2036C56.4092 35.0747 56.5833 35.2101 56.622 35.2487C56.6607 35.2874 56.6929 35.3261 56.7251 35.3648C56.5897 35.1972 56.7316 35.3841 56.7574 35.4293C56.7961 35.4873 56.8219 35.5518 56.8541 35.6098C56.8734 35.6485 56.8928 35.6872 56.9057 35.7259C56.867 35.642 56.867 35.6291 56.8863 35.6936C56.9702 35.8548 57.0153 36.016 57.054 36.1772C57.17 36.6865 57.7568 36.9896 58.2468 36.8542C58.769 36.7123 59.0398 36.1772 58.9238 35.6614C58.6014 34.2752 57.6407 33.1275 56.1384 33.0953C55.571 33.0824 54.9972 33.0953 54.4234 33.0953C53.856 33.0953 53.2821 33.0824 52.7083 33.0953C51.2125 33.1275 50.2647 34.2945 49.923 35.6614C49.304 38.1243 48.7366 40.6067 48.1499 43.0761C47.9694 43.8369 47.834 44.559 48.2144 45.3069C48.569 46.0097 49.2847 46.5255 50.0326 46.7383C50.5032 46.8672 50.9868 46.8415 51.4639 46.8415C51.1416 46.5191 50.8192 46.1967 50.4968 45.8743C50.6258 46.8737 50.7547 47.8666 50.8837 48.866C50.9546 49.414 51.0255 49.9685 51.0964 50.5166C51.1093 50.6326 51.1222 50.7487 51.1351 50.8647C51.1996 51.5611 51.4962 52.1478 52.0636 52.5669C52.689 53.0311 53.4304 52.9795 54.159 52.9795C54.7457 52.9795 55.3905 53.0505 55.9643 52.928C56.5704 52.799 57.1184 52.3864 57.4215 51.8383C57.6214 51.4772 57.66 51.1162 57.7052 50.7164C57.7503 50.2716 57.8212 49.8267 57.8793 49.3818C58.034 48.2148 58.1823 47.0478 58.337 45.8743C58.0147 46.1967 57.6923 46.5191 57.3699 46.8415C57.9179 46.8415 58.466 46.8672 58.9818 46.6674C59.8329 46.345 60.5937 45.6615 60.8129 44.7524C60.9805 44.069 60.7742 43.4307 60.613 42.773C60.1746 40.9355 59.7362 39.0979 59.2913 37.2604C59.1623 36.7252 59.0334 36.1901 58.9044 35.6549C58.7819 35.1456 58.2081 34.8425 57.7116 34.9779C57.2087 35.1262 56.9315 35.6678 57.054 36.1772Z" fill="#F78F1E"/>
<path d="M11.9084 19.8972C11.9084 19.8069 11.9148 19.7167 11.9213 19.6264C11.9342 19.5104 11.9342 19.5104 11.9213 19.62C11.9277 19.5748 11.9342 19.5361 11.9471 19.491C11.9664 19.4072 11.9857 19.3234 12.0115 19.2396C12.0244 19.1944 12.1405 18.9236 12.0502 19.1106C12.1211 18.9559 12.2114 18.814 12.2952 18.6722C12.4242 18.4594 12.1792 18.7818 12.3468 18.6013C12.4048 18.5368 12.4564 18.4787 12.5144 18.4143C12.5725 18.3562 12.6369 18.2982 12.7014 18.2466C12.8626 18.1048 12.6047 18.2982 12.7723 18.1951C12.8433 18.1499 12.9142 18.1048 12.9851 18.0597C13.0109 18.0468 13.2753 17.9178 13.1721 17.9629C13.0689 18.0081 13.3075 17.9178 13.3333 17.9114C13.43 17.8791 13.5267 17.8598 13.6234 17.834C13.8233 17.7824 13.488 17.8275 13.7137 17.8211C13.804 17.8146 13.8942 17.8082 13.9845 17.8082C14.0748 17.8082 14.165 17.8146 14.2553 17.8211C14.5261 17.8404 14.0877 17.776 14.3456 17.834C14.5132 17.8727 14.6744 17.9178 14.842 17.9823C14.6486 17.9049 14.9194 18.0274 14.9581 18.0468C15.029 18.0854 15.0999 18.1306 15.1773 18.1757C15.2095 18.2015 15.2482 18.2208 15.2804 18.2466C15.2095 18.1886 15.1966 18.1822 15.2482 18.2208C15.3256 18.2853 15.3965 18.3498 15.4674 18.4143C15.5255 18.4723 15.5835 18.5368 15.6351 18.6013C15.7705 18.7495 15.577 18.4852 15.6866 18.6722C15.7705 18.8205 15.8607 18.9559 15.9317 19.1106C15.8478 18.9236 15.9445 19.1557 15.9574 19.1944C15.9832 19.2782 16.009 19.3621 16.0284 19.4459C16.0413 19.5039 16.0542 19.5619 16.0606 19.6135C16.0477 19.5168 16.0477 19.5039 16.0542 19.5748C16.0671 19.678 16.0671 19.7812 16.0671 19.8843C16.0735 20.3872 16.5055 20.8772 17.0342 20.8515C17.55 20.8257 18.0078 20.4259 18.0013 19.8843C17.9691 17.6986 16.196 15.8675 13.9845 15.8675C11.7794 15.8675 9.9999 17.6986 9.96766 19.8843C9.96121 20.3872 10.419 20.8772 10.9348 20.8515C11.4764 20.8386 11.9019 20.4388 11.9084 19.8972Z" fill="#F78F1E"/>
<path d="M28.1111 19.8972C28.1111 19.8069 28.1176 19.7167 28.124 19.6264C28.1369 19.5104 28.1369 19.5104 28.124 19.62C28.1305 19.5748 28.1369 19.5361 28.1498 19.491C28.1692 19.4072 28.1885 19.3234 28.2143 19.2396C28.2272 19.1944 28.3432 18.9236 28.253 19.1106C28.3239 18.9559 28.4142 18.814 28.498 18.6722C28.6269 18.4594 28.3819 18.7818 28.5496 18.6013C28.6076 18.5368 28.6592 18.4787 28.7172 18.4143C28.7752 18.3562 28.8397 18.2982 28.9042 18.2466C29.0654 18.1048 28.8075 18.2982 28.9751 18.1951C29.046 18.1499 29.117 18.1048 29.1879 18.0597C29.2137 18.0468 29.478 17.9178 29.3749 17.9629C29.2717 18.0081 29.5103 17.9178 29.536 17.9114C29.6328 17.8791 29.7295 17.8598 29.8262 17.834C30.0261 17.7824 29.6908 17.8275 29.9164 17.8211C30.0067 17.8146 30.097 17.8082 30.1872 17.8082C30.2775 17.8082 30.3678 17.8146 30.458 17.8211C30.7288 17.8404 30.2904 17.776 30.5483 17.834C30.7159 17.8727 30.8771 17.9178 31.0448 17.9823C30.8513 17.9049 31.1221 18.0274 31.1608 18.0468C31.2318 18.0854 31.3027 18.1306 31.38 18.1757C31.4123 18.2015 31.451 18.2208 31.4832 18.2466C31.4123 18.1886 31.3994 18.1822 31.451 18.2208C31.5283 18.2853 31.5993 18.3498 31.6702 18.4143C31.7282 18.4723 31.7862 18.5368 31.8378 18.6013C31.9732 18.7495 31.7798 18.4852 31.8894 18.6722C31.9732 18.8205 32.0635 18.9559 32.1344 19.1106C32.0506 18.9236 32.1473 19.1557 32.1602 19.1944C32.186 19.2782 32.2118 19.3621 32.2311 19.4459C32.244 19.5039 32.2569 19.5619 32.2634 19.6135C32.2505 19.5168 32.2505 19.5039 32.2569 19.5748C32.2698 19.678 32.2698 19.7812 32.2698 19.8843C32.2763 20.3872 32.7082 20.8772 33.2369 20.8515C33.7527 20.8257 34.2105 20.4259 34.2041 19.8843C34.1718 17.6986 32.3988 15.8675 30.1872 15.8675C27.9822 15.8675 26.2027 17.6986 26.1704 19.8843C26.164 20.3872 26.6217 20.8772 27.1376 20.8515C27.6727 20.8386 28.1047 20.4388 28.1111 19.8972Z" fill="#F78F1E"/>
<path d="M44.3075 19.8972C44.3075 19.8069 44.3139 19.7167 44.3204 19.6264C44.3333 19.5104 44.3333 19.5104 44.3204 19.62C44.3268 19.5748 44.3333 19.5361 44.3462 19.491C44.3655 19.4072 44.3849 19.3234 44.4106 19.2396C44.4235 19.1944 44.5396 18.9236 44.4493 19.1106C44.5203 18.9559 44.6105 18.814 44.6943 18.6722C44.8233 18.4594 44.5783 18.7818 44.7459 18.6013C44.8039 18.5368 44.8555 18.4787 44.9136 18.4143C44.9716 18.3562 45.0361 18.2982 45.1005 18.2466C45.2617 18.1048 45.0038 18.2982 45.1715 18.1951C45.2424 18.1499 45.3133 18.1048 45.3842 18.0597C45.41 18.0468 45.6744 17.9178 45.5712 17.9629C45.468 18.0081 45.7066 17.9178 45.7324 17.9114C45.8291 17.8791 45.9258 17.8598 46.0225 17.834C46.2224 17.7824 45.8871 17.8275 46.1128 17.8211C46.2031 17.8146 46.2933 17.8082 46.3836 17.8082C46.4739 17.8082 46.5641 17.8146 46.6544 17.8211C46.9252 17.8404 46.4868 17.776 46.7447 17.834C46.9123 17.8727 47.0735 17.9178 47.2411 17.9823C47.0477 17.9049 47.3185 18.0274 47.3572 18.0468C47.4281 18.0854 47.499 18.1306 47.5764 18.1757C47.6086 18.2015 47.6473 18.2208 47.6796 18.2466C47.6086 18.1886 47.5957 18.1822 47.6473 18.2208C47.7247 18.2853 47.7956 18.3498 47.8665 18.4143C47.9246 18.4723 47.9826 18.5368 48.0342 18.6013C48.1696 18.7495 47.9761 18.4852 48.0858 18.6722C48.1696 18.8205 48.2598 18.9559 48.3308 19.1106C48.2469 18.9236 48.3437 19.1557 48.3566 19.1944C48.3823 19.2782 48.4081 19.3621 48.4275 19.4459C48.4404 19.5039 48.4533 19.5619 48.4597 19.6135C48.4468 19.5168 48.4468 19.5039 48.4533 19.5748C48.4662 19.678 48.4662 19.7812 48.4662 19.8843C48.4726 20.3872 48.9046 20.8772 49.4333 20.8515C49.9491 20.8257 50.4069 20.4259 50.4004 19.8843C50.3682 17.6986 48.5951 15.8675 46.3836 15.8675C44.1785 15.8675 42.399 17.6986 42.3668 19.8843C42.3603 20.3872 42.8181 20.8772 43.3339 20.8515C43.8755 20.8386 44.301 20.4388 44.3075 19.8972Z" fill="#F78F1E"/>
<path d="M20.013 11.7347C20.013 11.6445 20.0194 11.5542 20.0259 11.4639C20.0388 11.3479 20.0388 11.3479 20.0259 11.4575C20.0323 11.4124 20.0388 11.3737 20.0517 11.3285C20.071 11.2447 20.0904 11.1609 20.1161 11.0771C20.129 11.032 20.2451 10.7612 20.1548 10.9481C20.2258 10.7934 20.316 10.6516 20.3998 10.5097C20.5288 10.2969 20.2838 10.6193 20.4514 10.4388C20.5094 10.3743 20.561 10.3163 20.6191 10.2518C20.6771 10.1938 20.7416 10.1357 20.806 10.0842C20.9672 9.94232 20.7093 10.1357 20.877 10.0326C20.9479 9.98746 21.0188 9.94232 21.0897 9.89719C21.1155 9.88429 21.3799 9.75534 21.2767 9.80048C21.1735 9.84561 21.4121 9.75534 21.4379 9.7489C21.5346 9.71666 21.6313 9.69732 21.728 9.67153C21.9279 9.61994 21.5926 9.66508 21.8183 9.65863C21.9086 9.65218 21.9988 9.64574 22.0891 9.64574C22.1794 9.64574 22.2696 9.65218 22.3599 9.65863C22.6307 9.67797 22.1923 9.6135 22.4502 9.67153C22.6178 9.71021 22.779 9.75534 22.9466 9.81982C22.7532 9.74245 23.024 9.86495 23.0627 9.88429C23.1336 9.92298 23.2045 9.96811 23.2819 10.0132C23.3141 10.039 23.3528 10.0584 23.3851 10.0842C23.3141 10.0261 23.3012 10.0197 23.3528 10.0584C23.4302 10.1229 23.5011 10.1873 23.572 10.2518C23.6301 10.3098 23.6881 10.3743 23.7397 10.4388C23.8751 10.5871 23.6817 10.3227 23.7913 10.5097C23.8751 10.658 23.9653 10.7934 24.0363 10.9481C23.9524 10.7612 24.0492 10.9933 24.0621 11.032C24.0878 11.1158 24.1136 11.1996 24.133 11.2834C24.1459 11.3414 24.1588 11.3995 24.1652 11.4511C24.1523 11.3543 24.1523 11.3414 24.1588 11.4124C24.1717 11.5155 24.1717 11.6187 24.1717 11.7218C24.1781 12.2248 24.6101 12.7148 25.1388 12.689C25.6546 12.6632 26.1124 12.2634 26.1059 11.7218C26.0737 9.53613 24.3006 7.70502 22.0891 7.70502C19.884 7.70502 18.1045 9.53613 18.0723 11.7218C18.0658 12.2248 18.5236 12.7148 19.0394 12.689C19.5746 12.6761 20.0001 12.2763 20.013 11.7347Z" fill="#F78F1E"/>
<path d="M36.2093 11.7347C36.2093 11.6445 36.2158 11.5542 36.2222 11.4639C36.2351 11.3479 36.2351 11.3479 36.2222 11.4575C36.2287 11.4124 36.2351 11.3737 36.248 11.3285C36.2674 11.2447 36.2867 11.1609 36.3125 11.0771C36.3254 11.032 36.4414 10.7612 36.3512 10.9481C36.4221 10.7934 36.5124 10.6516 36.5962 10.5097C36.7251 10.2969 36.4801 10.6193 36.6478 10.4388C36.7058 10.3743 36.7574 10.3163 36.8154 10.2518C36.8734 10.1938 36.9379 10.1357 37.0024 10.0842C37.1636 9.94232 36.9057 10.1357 37.0733 10.0326C37.1442 9.98746 37.2152 9.94232 37.2861 9.89719C37.3119 9.88429 37.5762 9.75534 37.4731 9.80048C37.3699 9.84561 37.6085 9.75534 37.6342 9.7489C37.731 9.71666 37.8277 9.69732 37.9244 9.67153C38.1243 9.61994 37.789 9.66508 38.0147 9.65863C38.1049 9.65218 38.1952 9.64574 38.2855 9.64574C38.3757 9.64574 38.466 9.65218 38.5563 9.65863C38.827 9.67797 38.3886 9.6135 38.6465 9.67153C38.8142 9.71021 38.9753 9.75534 39.143 9.81982C38.9495 9.74245 39.2203 9.86495 39.259 9.88429C39.33 9.92298 39.4009 9.96811 39.4783 10.0132C39.5105 10.039 39.5492 10.0584 39.5814 10.0842C39.5105 10.0261 39.4976 10.0197 39.5492 10.0584C39.6265 10.1229 39.6975 10.1873 39.7684 10.2518C39.8264 10.3098 39.8844 10.3743 39.936 10.4388C40.0714 10.5871 39.878 10.3227 39.9876 10.5097C40.0714 10.658 40.1617 10.7934 40.2326 10.9481C40.1488 10.7612 40.2455 10.9933 40.2584 11.032C40.2842 11.1158 40.31 11.1996 40.3293 11.2834C40.3422 11.3414 40.3551 11.3995 40.3616 11.4511C40.3487 11.3543 40.3487 11.3414 40.3551 11.4124C40.368 11.5155 40.368 11.6187 40.368 11.7218C40.3745 12.2248 40.8064 12.7148 41.3351 12.689C41.851 12.6632 42.3087 12.2634 42.3023 11.7218C42.27 9.53613 40.497 7.70502 38.2855 7.70502C36.0804 7.70502 34.3009 9.53613 34.2686 11.7218C34.2622 12.2248 34.72 12.7148 35.2358 12.689C35.7709 12.6761 36.2029 12.2763 36.2093 11.7347Z" fill="#F78F1E"/>
<path d="M28.1111 4.02973C28.1111 3.93946 28.1176 3.84919 28.124 3.75893C28.1369 3.64287 28.1369 3.64287 28.124 3.75248C28.1305 3.70735 28.1369 3.66866 28.1498 3.62353C28.1692 3.53971 28.1885 3.45589 28.2143 3.37207C28.2272 3.32694 28.3432 3.05614 28.253 3.24312C28.3239 3.08838 28.4142 2.94654 28.498 2.80469C28.6269 2.59192 28.3819 2.9143 28.5496 2.73377C28.6076 2.66929 28.6592 2.61126 28.7172 2.54679C28.7752 2.48876 28.8397 2.43073 28.9042 2.37915C29.0654 2.2373 28.8075 2.43073 28.9751 2.32757C29.046 2.28244 29.117 2.2373 29.1879 2.19217C29.2137 2.17928 29.478 2.05032 29.3749 2.09546C29.2717 2.14059 29.5103 2.05032 29.536 2.04388C29.6328 2.01164 29.7295 1.9923 29.8262 1.96651C30.0261 1.91493 29.6908 1.96006 29.9164 1.95361C30.0067 1.94716 30.097 1.94072 30.1872 1.94072C30.2775 1.94072 30.3678 1.94716 30.458 1.95361C30.7288 1.97295 30.2904 1.90848 30.5483 1.96651C30.7159 2.00519 30.8771 2.05032 31.0448 2.1148C30.8513 2.03743 31.1221 2.15993 31.1608 2.17928C31.2318 2.21796 31.3027 2.26309 31.38 2.30823C31.4123 2.33402 31.451 2.35336 31.4832 2.37915C31.4123 2.32112 31.3994 2.31467 31.451 2.35336C31.5283 2.41784 31.5993 2.48231 31.6702 2.54679C31.7282 2.60481 31.7862 2.66929 31.8378 2.73377C31.9732 2.88206 31.7798 2.61771 31.8894 2.80469C31.9732 2.95298 32.0635 3.08838 32.1344 3.24312C32.0506 3.05614 32.1473 3.28826 32.1602 3.32694C32.186 3.41076 32.2118 3.49458 32.2311 3.5784C32.244 3.63642 32.2569 3.69445 32.2634 3.74603C32.2505 3.64932 32.2505 3.63642 32.2569 3.70735C32.2698 3.81051 32.2698 3.91367 32.2698 4.01683C32.2763 4.51974 32.7082 5.00975 33.2369 4.98396C33.7527 4.95817 34.2105 4.55843 34.2041 4.01683C34.1718 1.83111 32.3988 0 30.1872 0C27.9822 0 26.2027 1.83111 26.1704 4.01683C26.164 4.51974 26.6217 5.00975 27.1376 4.98396C27.6727 4.97752 28.1047 4.57132 28.1111 4.02973Z" fill="#F78F1E"/>
</svg>
