<svg width="61" height="53" viewBox="0 0 61 53" fill="none" xmlns="http://www.w3.org/2000/svg">
<rect width="61" height="53" fill="white"/>
<path d="M18.4616 23.9535H19.0982C23.5547 23.9535 27.2154 20.2928 27.2154 15.8363V8.43543C27.2154 3.74024 23.3955 0 18.7799 0C14.1643 0 10.3445 3.74024 10.3445 8.43543V15.8363C10.3445 20.3724 14.0051 23.9535 18.4616 23.9535ZM11.9361 8.43543C11.9361 4.61562 15.0397 1.59159 18.7799 1.59159C22.5997 1.59159 25.6238 4.69519 25.6238 8.43543V14.006H11.9361V8.43543ZM11.9361 15.5976H25.7033V15.8363C25.7033 19.4174 22.7589 22.3619 19.1778 22.3619H18.5412C14.9601 22.3619 12.0157 19.4174 12.0157 15.8363V15.5976H11.9361Z" fill="#F78F1E"/>
<path d="M20.6902 10.7432H16.8707C16.3932 10.7432 16.075 11.0615 16.075 11.539C16.075 12.0164 16.3932 12.3347 16.8707 12.3347H20.6902C21.1676 12.3347 21.4859 12.0164 21.4859 11.539C21.4859 11.0615 21.1676 10.7432 20.6902 10.7432Z" fill="#F78F1E"/>
<path d="M49.4985 0C44.8033 0 41.0631 3.81982 41.0631 8.43543V15.8363C41.0631 20.2928 44.7238 23.9535 49.1802 23.9535H49.8169C54.2733 23.9535 57.934 20.2928 57.934 15.8363V8.43543C58.0136 3.74024 54.1937 0 49.4985 0ZM56.422 15.8363C56.422 19.4174 53.4775 22.3619 49.8964 22.3619H49.2598C45.6787 22.3619 42.7343 19.4174 42.7343 15.8363V9.23123H56.5015V15.8363H56.422ZM42.7343 7.63964C43.1322 4.21772 45.997 1.51201 49.5781 1.51201C53.1592 1.51201 56.0241 4.21772 56.422 7.63964H42.7343Z" fill="#F78F1E"/>
<path d="M51.4079 4.37688H47.5885C47.111 4.37688 46.7927 4.69517 46.7927 5.1726C46.7927 5.65004 47.111 5.96833 47.5885 5.96833H51.4079C51.8854 5.96833 52.2037 5.65004 52.2037 5.1726C52.2037 4.69517 51.8854 4.37688 51.4079 4.37688Z" fill="#F78F1E"/>
<path d="M56.8198 51.4084H42.5751V42.5751H47.5886C49.021 42.5751 50.2147 41.3814 50.2147 39.949V37.7207C50.2147 37.2432 49.8964 36.9249 49.4189 36.9249H48.7823V36.6862C48.7823 35.4925 47.509 34.3784 46.0766 34.3784H36.4474V31.8318H47.9865C48.464 31.8318 48.7823 31.5135 48.7823 31.036C48.7823 30.5586 48.464 30.2402 47.9865 30.2402H36.4474V18.542C36.4474 16.8709 35.0946 15.518 33.4234 15.518C31.7522 15.518 30.3994 16.8709 30.3994 18.542V37.7207V39.949C30.3994 41.3814 31.5931 42.5751 33.0255 42.5751H38.039V51.4084H12.1757V42.5751H17.1892C18.6216 42.5751 19.8153 41.3814 19.8153 39.949V37.7207C19.8153 37.2432 19.497 36.9249 19.0195 36.9249H18.3829V36.6862C18.3829 35.4925 17.1096 34.3784 15.6772 34.3784H6.04805V31.8318H17.5871C18.0646 31.8318 18.3829 31.5135 18.3829 31.036C18.3829 30.5586 18.0646 30.2402 17.5871 30.2402H6.04805V18.542C6.04805 16.8709 4.69519 15.518 3.02402 15.518C1.35285 15.518 0 16.8709 0 18.542V37.7207V39.949C0 41.3814 1.19369 42.5751 2.62613 42.5751H7.63964V51.4084H0.795796C0.318318 51.4084 0 51.7267 0 52.2042C0 52.6817 0.318318 53 0.795796 53H8.43543H11.3799H38.8348H41.7793H56.8198C57.2973 53 57.6156 52.6817 57.6156 52.2042C57.6156 51.7267 57.2177 51.4084 56.8198 51.4084ZM6.04805 35.8904H15.7568C16.3934 35.8904 16.8709 36.3679 16.8709 36.6066V36.8453H6.04805V35.8904ZM10.5841 51.4084H9.23123V42.5751H10.5841V51.4084ZM8.43543 40.9835H2.62613C2.06907 40.9835 1.59159 40.506 1.59159 39.949V37.7207V18.542C1.59159 17.7462 2.22823 17.1096 3.02402 17.1096C3.81982 17.1096 4.45646 17.7462 4.45646 18.542V30.2402H3.18318C2.70571 30.2402 2.38739 30.5586 2.38739 31.036C2.38739 31.5135 2.70571 31.8318 3.18318 31.8318H4.45646V37.7207C4.45646 38.1982 4.77477 38.5165 5.25225 38.5165H18.2237V39.949C18.2237 40.506 17.7462 40.9835 17.1892 40.9835H11.3799H8.43543ZM36.4474 35.8904H46.1561C46.7928 35.8904 47.2703 36.3679 47.2703 36.6066V36.8453H36.4474V35.8904ZM40.9835 51.4084H39.6306V42.5751H40.9835V51.4084ZM38.8348 40.9835H33.0255C32.4685 40.9835 31.991 40.506 31.991 39.949V37.7207V18.542C31.991 17.7462 32.6276 17.1096 33.4234 17.1096C34.2192 17.1096 34.8559 17.7462 34.8559 18.542V30.2402H33.5826C33.1051 30.2402 32.7868 30.5586 32.7868 31.036C32.7868 31.5135 33.1051 31.8318 33.5826 31.8318H34.8559V37.7207C34.8559 38.1982 35.1742 38.5165 35.6516 38.5165H48.6231V39.949C48.6231 40.506 48.1456 40.9835 47.5886 40.9835H41.7793H38.8348Z" fill="#F78F1E"/>
</svg>
