<svg width="51" height="53" viewBox="0 0 51 53" fill="none" xmlns="http://www.w3.org/2000/svg">
<rect width="51" height="53" fill="white"/>
<path d="M40.8165 11.6114C41.0444 12.0218 41.1827 12.4759 41.2224 12.9437C41.262 13.4115 41.2021 13.8825 41.0465 14.3254C40.9895 14.5378 40.8641 14.7256 40.6896 14.8595C40.5152 14.9935 40.3014 15.0662 40.0815 15.0664C39.9936 15.066 39.9062 15.0542 39.8215 15.0314C39.6946 14.9973 39.5756 14.9385 39.4715 14.8584C39.3673 14.7784 39.28 14.6785 39.2144 14.5647C39.1488 14.4508 39.1064 14.3252 39.0894 14.1949C39.0724 14.0646 39.0813 13.9323 39.1155 13.8054C39.3085 13.0894 39.2155 12.8374 39.0795 12.6054C38.8635 12.2274 38.7625 12.1534 38.4795 12.0574C38.3547 12.016 38.2393 11.9504 38.1399 11.8643C38.0405 11.7783 37.959 11.6736 37.9001 11.5561C37.7811 11.3187 37.7613 11.0439 37.845 10.7919C37.9286 10.5399 38.109 10.3315 38.3463 10.2126C38.5836 10.0936 38.8585 10.0737 39.1105 10.1574C39.4783 10.2719 39.8191 10.4598 40.1123 10.7097C40.4056 10.9596 40.6451 11.2663 40.8165 11.6114V11.6114ZM39.5735 15.5274C39.3308 15.4206 39.0556 15.4145 38.8084 15.5105C38.5613 15.6065 38.3624 15.7968 38.2555 16.0394L38.0315 16.5454C37.9749 16.6657 37.943 16.7961 37.9374 16.929C37.9319 17.0618 37.9529 17.1944 37.9992 17.319C38.0456 17.4436 38.1163 17.5578 38.2072 17.6547C38.2982 17.7517 38.4076 17.8296 38.529 17.8837C38.6504 17.9379 38.7814 17.9674 38.9143 17.9703C39.0472 17.9733 39.1794 17.9497 39.3031 17.901C39.4268 17.8522 39.5395 17.7793 39.6347 17.6865C39.7299 17.5937 39.8056 17.4828 39.8575 17.3604L40.0855 16.8444C40.192 16.6018 40.1979 16.3269 40.1019 16.08C40.0059 15.8331 39.8158 15.6343 39.5735 15.5274ZM35.7555 39.2994C35.301 39.3873 34.8393 39.4319 34.3765 39.4324C31.8175 39.4324 29.4135 38.0094 27.2025 35.2204C25.109 37.3428 22.855 39.3007 20.4605 41.0764C17.7605 42.9764 16.2735 47.6594 16.2605 47.7074C16.1966 47.9104 16.0697 48.0877 15.8981 48.2136C15.7265 48.3395 15.5193 48.4074 15.3065 48.4074H15.2475C15.0546 48.3908 14.8627 48.3645 14.6725 48.3284L12.6725 52.2964C12.552 52.5313 12.3435 52.709 12.0925 52.7908C11.8415 52.8726 11.5684 52.8518 11.3327 52.733C11.0969 52.6142 10.9177 52.4071 10.8341 52.1567C10.7505 51.9063 10.7693 51.633 10.8865 51.3964L12.7195 47.7584C9.54722 46.4085 6.81397 44.2013 4.82646 41.3844L1.79646 45.3454C1.63494 45.5562 1.39628 45.6943 1.13298 45.7292C0.869676 45.7641 0.603303 45.6929 0.392456 45.5314C0.181608 45.3699 0.0435597 45.1312 0.00867797 44.8679C-0.0262038 44.6046 0.0449389 44.3382 0.206456 44.1274L3.61946 39.6664C3.5043 39.482 3.45235 39.2652 3.47148 39.0486C3.49061 38.8321 3.57977 38.6277 3.72546 38.4664C3.75746 38.4304 6.88246 34.9304 6.48846 31.0844C5.98846 26.2474 9.77746 16.7754 10.5415 14.9244C10.7905 14.3207 11.2298 13.8148 11.7925 13.4834C12.3552 13.152 13.0107 13.0133 13.6595 13.0884C13.9825 11.3314 15.0995 7.51939 18.8155 6.34839C19.6333 6.05588 20.3854 5.60504 21.0289 5.02164C21.6723 4.43824 22.1945 3.73373 22.5655 2.94839C23.11 1.74359 24.0877 0.787645 25.3045 0.270395C28.3495 -0.644606 31.4855 0.786394 33.9175 4.20239C34.7175 5.32139 35.8685 5.53939 37.6855 5.80239C39.8325 6.11439 42.5045 6.50239 44.2905 9.62939C46.1995 12.9724 44.8325 16.0294 43.5095 18.9954C42.5549 20.7646 41.9851 22.7156 41.8375 24.7204C41.8895 29.0654 41.9875 38.1064 35.7555 39.2994ZM28.6715 30.5274C29.8475 28.8274 33.1885 25.1324 35.0715 23.0834C35.1463 23.002 35.204 22.9064 35.2411 22.8022C35.2782 22.698 35.2939 22.5874 35.2874 22.477C35.2809 22.3667 35.2522 22.2587 35.2031 22.1596C35.1539 22.0606 35.0854 21.9724 35.0015 21.9004C34.8407 21.761 34.6323 21.6892 34.4198 21.7C34.2073 21.7108 34.0072 21.8034 33.8615 21.9584L33.3735 22.4744L28.6015 27.5374C28.5113 27.6329 28.4032 27.7098 28.2834 27.7635C28.1635 27.8173 28.0343 27.8469 27.9029 27.8507C27.7716 27.8545 27.6409 27.8325 27.5181 27.7857C27.3953 27.739 27.283 27.6685 27.1875 27.5784C27.0919 27.4882 27.0151 27.3802 26.9613 27.2603C26.9075 27.1405 26.8779 27.0112 26.8741 26.8799C26.8703 26.7486 26.8924 26.6178 26.9391 26.4951C26.9859 26.3723 27.0563 26.2599 27.1465 26.1644L31.5675 21.4804L32.3125 20.6924L34.8565 17.9924C35.0368 17.8026 35.1355 17.5497 35.1314 17.2879C35.1272 17.0261 35.0206 16.7764 34.8345 16.5924C34.7435 16.4938 34.6319 16.4164 34.5076 16.3658C34.3833 16.3151 34.2495 16.2925 34.1155 16.2994C33.982 16.3003 33.85 16.328 33.7274 16.3807C33.6048 16.4334 33.494 16.5102 33.4015 16.6064L32.2295 17.8204L25.9795 24.5204C25.8908 24.6199 25.7832 24.7006 25.6629 24.7579C25.5426 24.8151 25.4121 24.8478 25.279 24.8539C25.1459 24.8601 25.0129 24.8395 24.8879 24.7935C24.7628 24.7476 24.6482 24.6771 24.5508 24.5862C24.4534 24.4953 24.3751 24.3859 24.3206 24.2643C24.266 24.1427 24.2364 24.0115 24.2332 23.8783C24.2301 23.7451 24.2537 23.6126 24.3025 23.4887C24.3513 23.3647 24.4244 23.2517 24.5175 23.1564L30.7845 16.4404L30.7985 16.4274L33.9915 13.0064C34.1847 12.7901 34.2861 12.5071 34.2742 12.2174C34.2624 11.9276 34.1382 11.6538 33.928 11.454C33.7178 11.2542 33.4381 11.1441 33.1481 11.147C32.8581 11.1498 32.5807 11.2655 32.3745 11.4694L30.3465 13.5634L29.4745 14.4634L23.5095 20.6234C23.3243 20.8141 23.071 20.9234 22.8053 20.9274C22.5396 20.9313 22.2831 20.8295 22.0925 20.6444C21.9018 20.4593 21.7924 20.206 21.7885 19.9402C21.7845 19.6745 21.8863 19.4181 22.0715 19.2274L28.9095 12.1674L29.3375 11.7274C29.4787 11.5801 29.5736 11.3946 29.6106 11.1939C29.6477 10.9933 29.6251 10.7861 29.5458 10.5981C29.4664 10.4101 29.3338 10.2494 29.1642 10.1359C28.9946 10.0224 28.7955 9.96105 28.5915 9.95939H28.5855C28.4478 9.95914 28.3114 9.98634 28.1843 10.0394C28.0573 10.0924 27.9421 10.1703 27.8455 10.2684L15.4995 22.7684C15.4177 22.9039 15.3049 23.018 15.1705 23.1014L13.2265 25.0694C13.04 25.2581 12.7862 25.365 12.521 25.3666C12.2557 25.3682 12.0007 25.2643 11.812 25.0779C11.6233 24.8914 11.5163 24.6377 11.5148 24.3724C11.5132 24.1071 11.617 23.8521 11.8035 23.6634L13.7035 21.7384L14.4785 16.4674C14.5211 16.1716 14.455 15.8703 14.2925 15.6195C14.1299 15.3686 13.8819 15.1853 13.5945 15.1034C13.3571 15.038 13.1041 15.0616 12.883 15.17C12.662 15.2783 12.4882 15.4638 12.3945 15.6914C10.2125 20.9734 8.15746 27.7194 8.48146 30.8834C8.86346 34.6094 6.72546 37.8834 5.71246 39.2024C9.34346 44.4954 13.1065 45.9114 14.6455 46.2824C15.2525 44.6824 16.7995 41.2094 19.3135 39.4414C22.7975 36.8781 25.942 33.8828 28.6715 30.5274V30.5274ZM39.8375 24.7424C39.9644 22.4467 40.5931 20.2068 41.6795 18.1804C42.9005 15.4454 43.9555 13.0804 42.5495 10.6204C41.2495 8.3414 39.4615 8.08239 37.3935 7.78239C35.6235 7.52539 33.6175 7.23439 32.2845 5.36239C30.3845 2.68939 28.0445 1.53139 25.8785 2.18539C25.2995 2.36039 24.8875 2.98539 24.2635 3.99939C23.2629 5.99668 21.5224 7.52471 19.4125 8.2584C16.2405 9.2584 15.6235 13.2804 15.5365 14.0154C15.8917 14.37 16.1594 14.8025 16.3183 15.2787C16.4771 15.7549 16.5227 16.2615 16.4515 16.7584L16.0725 19.3344L26.4185 8.86539C26.7007 8.57864 27.0375 8.35128 27.409 8.19671C27.7804 8.04214 28.1791 7.96349 28.5815 7.96539H28.6005C29.0063 7.96671 29.4076 8.04993 29.7805 8.21008C30.1534 8.37023 30.4901 8.604 30.7705 8.8974C31.0044 9.14422 31.1954 9.42849 31.3355 9.73839C31.9602 9.27922 32.7338 9.06979 33.5049 9.1511C34.2759 9.23241 34.9888 9.59862 35.504 10.178C36.0192 10.7574 36.2996 11.5082 36.2903 12.2835C36.2809 13.0588 35.9825 13.8026 35.4535 14.3694L35.2925 14.5414C35.7402 14.729 36.1358 15.0224 36.4451 15.3965C36.7545 15.7706 36.9685 16.2141 37.0687 16.6891C37.1689 17.1641 37.1524 17.6564 37.0205 18.1235C36.8886 18.5907 36.6453 19.0189 36.3115 19.3714L35.7115 20.0054C36.1059 20.1976 36.45 20.4794 36.7161 20.8283C36.9822 21.1772 37.1631 21.5835 37.2441 22.0147C37.3251 22.446 37.3042 22.8902 37.1829 23.3119C37.0615 23.7336 36.8433 24.1211 36.5455 24.4434C35.0565 26.0604 32.6655 28.6984 31.2045 30.5094C32.8475 32.6604 34.2465 33.4814 34.6255 33.4094C34.8895 33.0731 35.0772 32.6835 35.1755 32.2674C35.2542 32.0141 35.4304 31.8025 35.6652 31.6791C35.9 31.5557 36.1742 31.5306 36.4275 31.6094C36.6807 31.6882 36.8924 31.8643 37.0158 32.0991C37.1391 32.3339 37.1642 32.6081 37.0855 32.8614C36.6215 34.3524 35.9205 35.1984 35.0035 35.3734C34.8716 35.3988 34.7377 35.4115 34.6035 35.4114C32.8915 35.4114 31.0175 33.4624 29.9575 32.1614C29.5855 32.6474 29.1205 33.1904 28.5995 33.7614C30.7565 36.5714 33.0325 37.7864 35.3815 37.3384C39.4245 36.5604 39.9055 30.5344 39.8375 24.7424ZM41.2195 48.6424C41.0195 48.5364 40.8251 48.4284 40.6365 48.3184C40.4064 48.1858 40.133 48.15 39.8766 48.2189C39.6201 48.2878 39.4016 48.4558 39.269 48.6859C39.1363 48.916 39.1006 49.1893 39.1695 49.4458C39.2384 49.7022 39.4064 49.9208 39.6365 50.0534C39.8425 50.1714 40.0508 50.2874 40.2615 50.4014C40.4947 50.5278 40.7686 50.5563 41.0229 50.4807C41.2772 50.4052 41.4911 50.2317 41.6175 49.9984C41.7438 49.7651 41.7724 49.4912 41.6968 49.2369C41.6212 48.9826 41.4477 48.7688 41.2145 48.6424H41.2195ZM31.3915 40.7364C31.222 40.5323 30.9784 40.4039 30.7142 40.3794C30.4501 40.355 30.187 40.4364 29.983 40.6059C29.7789 40.7754 29.6505 41.019 29.626 41.2831C29.6015 41.5473 29.683 41.8103 29.8525 42.0144C31.9054 44.3558 34.2324 46.4417 36.7835 48.2274C36.8907 48.3032 37.0119 48.3571 37.14 48.386C37.2681 48.415 37.4007 48.4184 37.5302 48.3961C37.6596 48.3738 37.7834 48.3263 37.8945 48.2561C38.0055 48.186 38.1017 48.0947 38.1775 47.9874C38.2532 47.8801 38.3071 47.7589 38.3361 47.6308C38.365 47.5027 38.3684 47.3701 38.3462 47.2407C38.3239 47.1112 38.2763 46.9875 38.2062 46.8764C38.1361 46.7653 38.0447 46.6692 37.9375 46.5934C35.535 44.9035 33.3393 42.9374 31.3955 40.7354L31.3915 40.7364ZM43.3625 38.7364C43.2615 38.5008 43.074 38.313 42.8385 38.2117C42.6031 38.1104 42.3378 38.1034 42.0973 38.192C41.8569 38.2807 41.6596 38.4583 41.5463 38.6882C41.433 38.9181 41.4123 39.1827 41.4885 39.4274C41.5415 39.5724 42.8335 43.0274 47.5015 48.0904C47.5901 48.1884 47.6973 48.2678 47.8168 48.3241C47.9364 48.3804 48.0659 48.4124 48.1978 48.4184C48.3298 48.4243 48.4617 48.4041 48.5858 48.3588C48.7099 48.3135 48.8238 48.244 48.921 48.1544C49.0181 48.0649 49.0965 47.9569 49.1516 47.8369C49.2068 47.7168 49.2376 47.587 49.2423 47.4549C49.247 47.3229 49.2255 47.1912 49.179 47.0676C49.1325 46.9439 49.062 46.8307 48.9715 46.7344C44.6095 42.0034 43.3775 38.7684 43.3665 38.7364H43.3625ZM50.7485 39.7364C49.3798 37.201 48.2808 34.529 47.4695 31.7644C47.434 31.6363 47.3734 31.5166 47.2911 31.4123C47.2089 31.3079 47.1067 31.221 46.9905 31.1566C46.8742 31.0922 46.7464 31.0516 46.6143 31.0372C46.4822 31.0228 46.3486 31.0348 46.2212 31.0726C46.0938 31.1104 45.9752 31.1732 45.8724 31.2574C45.7696 31.3415 45.6846 31.4453 45.6223 31.5627C45.56 31.6801 45.5218 31.8087 45.5098 31.941C45.4978 32.0733 45.5123 32.2067 45.5525 32.3334C46.4033 35.2323 47.556 38.034 48.9915 40.6924C49.0542 40.8078 49.1391 40.9096 49.2412 40.9922C49.3434 41.0748 49.4608 41.1364 49.5868 41.1736C49.7127 41.2108 49.8448 41.2228 49.9754 41.2089C50.106 41.1951 50.2326 41.1557 50.348 41.0929C50.4633 41.0301 50.5652 40.9452 50.6478 40.8431C50.7303 40.741 50.792 40.6236 50.8291 40.4976C50.8663 40.3716 50.8784 40.2396 50.8645 40.109C50.8507 39.9784 50.8112 39.8518 50.7485 39.7364V39.7364ZM44.3375 26.9754C44.3375 27.0084 44.4375 27.7754 44.7125 29.0484C44.7603 29.2721 44.8833 29.4727 45.0611 29.6166C45.2389 29.7606 45.4607 29.8392 45.6895 29.8394C45.7601 29.8396 45.8305 29.8319 45.8995 29.8164C46.1587 29.7608 46.3852 29.6045 46.5292 29.3819C46.6732 29.1593 46.7229 28.8886 46.6675 28.6294C46.4145 27.4484 46.3225 26.7294 46.3215 26.7244C46.2849 26.4641 46.1473 26.2286 45.9385 26.069C45.7297 25.9093 45.4664 25.8383 45.2057 25.8713C44.9449 25.9043 44.7076 26.0387 44.5451 26.2453C44.3826 26.4519 44.308 26.7142 44.3375 26.9754V26.9754Z" fill="#F78F1E"/>
</svg>
