<svg width="60" height="60" viewBox="0 0 60 60" fill="none" xmlns="http://www.w3.org/2000/svg">
<path fill-rule="evenodd" clip-rule="evenodd" d="M30 60C46.5685 60 60 46.5685 60 30C60 13.4315 46.5685 0 30 0C13.4315 0 0 13.4315 0 30C0 46.5685 13.4315 60 30 60Z" fill="#E1E9F0"/>
<path fill-rule="evenodd" clip-rule="evenodd" d="M26.7749 29.3552C25.8075 28.477 25.2 27.2095 25.2 25.8C25.2 23.149 27.3491 21 30 21C32.651 21 34.8 23.149 34.8 25.8C34.8 27.2095 34.1925 28.477 33.2251 29.3552C36.9406 30.6801 39.6 34.2295 39.6 38.4H37.8C37.8 34.0922 34.3078 30.6 30 30.6C25.6922 30.6 22.2 34.0922 22.2 38.4H20.4C20.4 34.2295 23.0594 30.6801 26.7749 29.3552V29.3552ZM30 28.8C31.6569 28.8 33 27.4569 33 25.8C33 24.1431 31.6569 22.8 30 22.8C28.3432 22.8 27 24.1431 27 25.8C27 27.4569 28.3432 28.8 30 28.8Z" fill="#304659"/>
</svg>
