<svg width="51" height="50" viewBox="0 0 51 50" fill="none" xmlns="http://www.w3.org/2000/svg">
<rect width="51" height="50" fill="white"/>
<path d="M49.6874 18.7165L25.4929 0.167425C25.3519 0.0588655 25.1789 0 25.001 0C24.823 0 24.65 0.0588655 24.509 0.167425L0.314528 18.7165C0.216932 18.7917 0.13784 18.8881 0.0833188 18.9986C0.0287977 19.109 0.000296044 19.2305 0 19.3537V49.1935C0 49.4074 0.0849685 49.6125 0.236213 49.7638C0.387458 49.915 0.59259 50 0.806483 50H49.1955C49.4093 50 49.6145 49.915 49.7657 49.7638C49.917 49.6125 50.0019 49.4074 50.0019 49.1935V19.3537C50.0016 19.2305 49.9731 19.109 49.9186 18.9986C49.8641 18.8881 49.785 18.7917 49.6874 18.7165ZM45.163 48.387H27.4204V45.9676C27.4204 45.7537 27.3354 45.5486 27.1842 45.3973C27.033 45.2461 26.8278 45.1611 26.6139 45.1611H25.8075V43.5481H29.5576C29.7423 43.5489 29.9216 43.4863 30.0657 43.3707C30.8383 42.7459 31.4914 41.9863 31.9932 41.1287L34.0739 40.9916C34.2924 41.5484 34.6826 42.0212 35.188 42.3413C35.6933 42.6614 36.2875 42.8121 36.8844 42.7717C37.4812 42.7312 38.0496 42.5017 38.5072 42.1164C38.9647 41.731 39.2876 41.2099 39.4289 40.6287L43.6065 40.3222C43.8105 40.3079 44.0014 40.2166 44.1406 40.0669C44.2799 39.9172 44.3571 39.7202 44.3566 39.5157V36.2898C44.3571 36.0853 44.2799 35.8883 44.1406 35.7386C44.0014 35.5889 43.8105 35.4976 43.6065 35.4833L32.7029 34.6768C32.3126 33.4371 31.6284 32.31 30.7086 31.3917C29.7889 30.4733 28.6608 29.7908 27.4204 29.4024V26.612C27.4204 25.9703 27.1655 25.3549 26.7118 24.9012C26.258 24.4475 25.6426 24.1925 25.001 24.1925C24.3593 24.1925 23.7439 24.4475 23.2902 24.9012C22.8364 25.3549 22.5815 25.9703 22.5815 26.612V29.4024C21.3412 29.7908 20.2131 30.4733 19.2933 31.3917C18.3735 32.31 17.6894 33.4371 17.2991 34.6768L6.39541 35.4833C6.19145 35.4976 6.00054 35.5889 5.8613 35.7386C5.72205 35.8883 5.64488 36.0853 5.64538 36.2898V39.5157C5.64488 39.7202 5.72205 39.9172 5.8613 40.0669C6.00054 40.2166 6.19145 40.3079 6.39541 40.3222L10.573 40.5964C10.7144 41.1777 11.0372 41.6988 11.4948 42.0841C11.9523 42.4694 12.5207 42.699 13.1176 42.7394C13.7144 42.7799 14.3086 42.6291 14.8139 42.309C15.3193 41.989 15.7095 41.5162 15.928 40.9593L18.0088 41.0964C18.5074 41.9656 19.1606 42.7363 19.9363 43.3707C20.0803 43.4863 20.2597 43.5489 20.4443 43.5481H24.1945V45.1611H23.388C23.1741 45.1611 22.969 45.2461 22.8177 45.3973C22.6665 45.5486 22.5815 45.7537 22.5815 45.9676V48.387H4.8389V22.5796H45.163V48.387ZM25.8075 46.7741V48.387H24.1945V46.7741H25.8075ZM16.0732 39.3464C15.9501 38.7412 15.6314 38.1934 15.1662 37.7872C14.701 37.3811 14.1152 37.1392 13.499 37.0988C12.8827 37.0585 12.2704 37.2219 11.7562 37.5639C11.242 37.906 10.8546 38.4076 10.6536 38.9915L7.25835 38.7576V37.0398L16.9765 36.3462C16.9765 36.5963 16.9361 36.8463 16.9361 37.0963C16.9386 37.8865 17.0581 38.6719 17.291 39.427L16.0732 39.3464ZM14.5167 39.919C14.5167 40.1582 14.4457 40.3921 14.3128 40.591C14.1799 40.79 13.991 40.945 13.7699 41.0366C13.5489 41.1282 13.3056 41.1521 13.071 41.1054C12.8363 41.0588 12.6207 40.9436 12.4516 40.7744C12.2824 40.6052 12.1672 40.3896 12.1205 40.155C12.0738 39.9203 12.0978 39.6771 12.1893 39.456C12.2809 39.235 12.4359 39.046 12.6349 38.9131C12.8338 38.7802 13.0677 38.7092 13.307 38.7092C13.6278 38.7092 13.9355 38.8367 14.1624 39.0636C14.3892 39.2904 14.5167 39.5981 14.5167 39.919ZM18.5491 37.0963C18.5481 36.0017 18.8257 34.9249 19.3556 33.9671C19.3808 34.8058 19.7317 35.6017 20.334 36.1859C20.9363 36.7701 21.7425 37.0967 22.5815 37.0963H27.4204C28.2595 37.0967 29.0657 36.7701 29.6679 36.1859C30.2702 35.6017 30.6212 34.8058 30.6463 33.9671C31.359 35.2536 31.6108 36.7449 31.36 38.194C31.1092 39.6431 30.3709 40.9631 29.2673 41.9352H20.7347C20.0479 41.3298 19.4979 40.5853 19.121 39.751C18.7442 38.9167 18.5493 38.0117 18.5491 37.0963V37.0963ZM25.8075 29.0314C25.5413 29.0314 25.2752 29.0314 25.001 29.0314C24.7268 29.0314 24.4606 29.0314 24.1945 29.0314V26.612C24.1945 26.3981 24.2795 26.193 24.4307 26.0417C24.5819 25.8905 24.7871 25.8055 25.001 25.8055C25.2149 25.8055 25.42 25.8905 25.5712 26.0417C25.7225 26.193 25.8075 26.3981 25.8075 26.612V29.0314ZM25.001 30.6444C26.4674 30.6456 27.8896 31.1462 29.0334 32.0638V33.8703C29.0334 34.2981 28.8634 34.7084 28.561 35.0109C28.2585 35.3134 27.8482 35.4833 27.4204 35.4833H22.5815C22.1537 35.4833 21.7435 35.3134 21.441 35.0109C21.1385 34.7084 20.9686 34.2981 20.9686 33.8703V32.0638C22.1123 31.1462 23.5346 30.6456 25.001 30.6444ZM33.0658 36.3462L42.7436 37.0398V38.7576L39.3483 38.9915C39.1473 38.4076 38.7599 37.906 38.2458 37.5639C37.7316 37.2219 37.1192 37.0585 36.503 37.0988C35.8868 37.1392 35.3009 37.3811 34.8357 37.7872C34.3705 38.1934 34.0518 38.7412 33.9287 39.3464L32.7109 39.427C32.9438 38.6719 33.0634 37.8865 33.0658 37.0963C33.0658 36.8463 33.0658 36.5963 33.0658 36.3462ZM37.9047 39.919C37.9047 40.1582 37.8337 40.3921 37.7008 40.591C37.5679 40.79 37.379 40.945 37.1579 41.0366C36.9369 41.1282 36.6936 41.1521 36.459 41.1054C36.2243 41.0588 36.0087 40.9436 35.8396 40.7744C35.6704 40.6052 35.5552 40.3896 35.5085 40.155C35.4618 39.9203 35.4858 39.6771 35.5773 39.456C35.6689 39.235 35.8239 39.046 36.0229 38.9131C36.2218 38.7802 36.4557 38.7092 36.695 38.7092C37.0158 38.7092 37.3235 38.8367 37.5504 39.0636C37.7772 39.2904 37.9047 39.5981 37.9047 39.919ZM48.389 48.387H46.776V21.7731C46.776 21.5592 46.691 21.3541 46.5398 21.2028C46.3885 21.0516 46.1834 20.9666 45.9695 20.9666H4.03241C3.81852 20.9666 3.61339 21.0516 3.46214 21.2028C3.3109 21.3541 3.22593 21.5592 3.22593 21.7731V48.387H1.61297V19.7488L25.001 1.82071L48.389 19.7488V48.387Z" fill="#F78F1E"/>
<path d="M16.9362 12.0952V18.547C16.9362 18.7609 17.0211 18.9661 17.1724 19.1173C17.3236 19.2685 17.5287 19.3535 17.7426 19.3535H32.2593C32.4732 19.3535 32.6784 19.2685 32.8296 19.1173C32.9808 18.9661 33.0658 18.7609 33.0658 18.547V12.0952C33.0658 11.8813 32.9808 11.6761 32.8296 11.5249C32.6784 11.3736 32.4732 11.2887 32.2593 11.2887H17.7426C17.5287 11.2887 17.3236 11.3736 17.1724 11.5249C17.0211 11.6761 16.9362 11.8813 16.9362 12.0952ZM18.5491 12.9016H31.4528V17.7405H18.5491V12.9016Z" fill="#F78F1E"/>
<path d="M29.8398 14.5146H20.162V16.1276H29.8398V14.5146Z" fill="#F78F1E"/>
</svg>
