<svg width="67" height="67" viewBox="0 0 67 67" fill="none" xmlns="http://www.w3.org/2000/svg">
<circle cx="33.5" cy="33.5" r="33.5" fill="white"/>
<path fill-rule="evenodd" clip-rule="evenodd" d="M29 29C27.3431 29 26 30.3431 26 32C26 33.6569 27.3431 35 29 35C30.6569 35 32 33.6569 32 32C32 30.3431 30.6569 29 29 29ZM28 32C28 31.4477 28.4477 31 29 31C29.5523 31 30 31.4477 30 32C30 32.5523 29.5523 33 29 33C28.4477 33 28 32.5523 28 32Z" fill="#304659"/>
<path fill-rule="evenodd" clip-rule="evenodd" d="M25 25C23.3431 25 22 26.3431 22 28V40C22 41.6569 23.3431 43 25 43H43C44.6569 43 46 41.6569 46 40V28C46 26.3431 44.6569 25 43 25H25ZM43 27H25C24.4477 27 24 27.4477 24 28V40C24 40.5523 24.4477 41 25 41H29.3137L36.1924 34.1214C37.364 32.9498 39.2635 32.9498 40.435 34.1214L44 37.6863V28C44 27.4477 43.5523 27 43 27ZM43 41H32.1422L37.6066 35.5356C37.9971 35.145 38.6303 35.145 39.0208 35.5356L43.907 40.4217C43.7479 40.7633 43.4016 41 43 41Z" fill="#304659"/>
</svg>
