<svg width="30" height="24" viewBox="0 0 30 24" fill="none" xmlns="http://www.w3.org/2000/svg">
<path fill-rule="evenodd" clip-rule="evenodd" d="M8.5 9V5.25C8.5 2.35051 10.8505 0 13.75 0H15.25C18.1495 0 20.5 2.35051 20.5 5.25V9H25V24H4V9H8.5ZM10.75 9H18.25V5.25C18.25 3.59315 16.9069 2.25 15.25 2.25H13.75C12.0931 2.25 10.75 3.59315 10.75 5.25V9ZM14.5 13.5C15.1213 13.5 15.625 14.0037 15.625 14.625V18.375C15.625 18.9963 15.1213 19.5 14.5 19.5C13.8787 19.5 13.375 18.9963 13.375 18.375V14.625C13.375 14.0037 13.8787 13.5 14.5 13.5ZM6.25 11.25V21.75H22.75V11.25H6.25Z" fill="#F18209"/>
</svg>
