<svg width="90" height="50" viewBox="0 0 90 50" fill="none" xmlns="http://www.w3.org/2000/svg">
<g clip-path="url(#clip0)">
<rect width="90" height="50" fill="white"/>
<path d="M80.93 22.511H70.104C71.789 19.684 72.248 16.243 71.265 12.999L70.896 11.78L63.534 19.144L58.549 17.808L57.214 12.823L64.577 5.461L63.357 5.093C62.239 4.754 61.08 4.583 59.909 4.583C56.739 4.583 53.76 5.816 51.52 8.057C50.502 9.074 49.701 10.252 49.124 11.523L34.524 0H21.792L38.84 22.512H21.187L9.01 11.472H0L11.508 29.073L5.011 37.134H13.989L20.969 35.727H31.909L29.148 38.489C27.731 39.906 26.832 41.68 26.617 43.489C26.392 45.365 26.926 47.053 28.115 48.242C29.113 49.24 30.511 49.79 32.053 49.79C34.11 49.79 36.23 48.849 37.869 47.208L49.349 35.728H80.929C85.663 35.728 89.516 32.765 89.516 29.121C89.517 25.475 85.664 22.511 80.93 22.511ZM20.893 34.201L13.836 35.607H8.2L13.391 29.166L2.821 12.998H8.422L20.599 24.037H41.91L24.862 1.525H33.995L48.555 13.019C48.547 13.047 48.54 13.077 48.532 13.106C48.487 13.262 48.446 13.42 48.407 13.578C48.383 13.676 48.356 13.775 48.334 13.875C48.304 14.011 48.278 14.148 48.253 14.286C48.23 14.409 48.206 14.531 48.188 14.654C48.17 14.763 48.16 14.874 48.145 14.983C48.126 15.133 48.107 15.283 48.094 15.433C48.086 15.512 48.084 15.594 48.078 15.673C48.066 15.852 48.055 16.03 48.051 16.209C48.05 16.261 48.053 16.313 48.053 16.367C48.051 16.571 48.051 16.773 48.06 16.976C48.061 17.013 48.066 17.049 48.068 17.083C48.08 17.303 48.094 17.521 48.119 17.739C48.123 17.777 48.13 17.815 48.135 17.852C48.161 18.069 48.189 18.283 48.227 18.498C48.271 18.752 48.323 19.005 48.384 19.256L33.436 34.201H20.893ZM36.791 46.128C35.434 47.484 33.707 48.263 32.053 48.263C30.903 48.263 29.913 47.882 29.194 47.162C28.342 46.31 27.965 45.069 28.132 43.669C28.307 42.198 29.051 40.741 30.228 39.565L50.086 19.707L49.964 19.276C49.896 19.033 49.837 18.79 49.787 18.545C49.768 18.455 49.756 18.365 49.739 18.277C49.712 18.122 49.684 17.969 49.664 17.814C49.65 17.702 49.639 17.591 49.628 17.479C49.614 17.347 49.603 17.214 49.595 17.081C49.587 16.961 49.583 16.841 49.58 16.721C49.576 16.593 49.576 16.467 49.577 16.339C49.578 16.221 49.58 16.102 49.585 15.984C49.593 15.845 49.603 15.708 49.615 15.568C49.624 15.464 49.631 15.36 49.642 15.255C49.666 15.056 49.696 14.859 49.731 14.661C49.738 14.618 49.743 14.577 49.751 14.535C49.799 14.284 49.856 14.033 49.923 13.783C49.929 13.761 49.936 13.739 49.943 13.717C50.004 13.494 50.072 13.273 50.149 13.053C50.652 11.6 51.476 10.255 52.598 9.134C54.551 7.182 57.146 6.107 59.909 6.107C60.486 6.107 61.062 6.154 61.629 6.249L55.513 12.367L57.304 19.052L63.991 20.844L70.108 14.726C70.584 17.539 69.874 20.414 68.155 22.684L68.061 22.804C67.782 23.161 67.507 23.473 67.223 23.758C65.621 25.359 63.582 26.36 61.376 26.67C60.895 26.738 60.408 26.785 59.913 26.785C58.954 26.785 58 26.653 57.08 26.391L56.649 26.268L36.791 46.128ZM80.93 34.201H50.876L57.102 27.975C58.02 28.198 58.964 28.311 59.913 28.311C60.309 28.311 60.703 28.292 61.093 28.253C61.817 28.183 62.527 28.044 63.216 27.845C63.569 27.742 63.915 27.626 64.256 27.491C64.501 27.394 64.744 27.292 64.984 27.18C65.265 27.045 65.54 26.899 65.811 26.743C65.874 26.707 65.939 26.672 66.002 26.635C66.83 26.137 67.602 25.535 68.302 24.836C68.455 24.683 68.605 24.52 68.753 24.353C68.832 24.265 68.908 24.174 68.984 24.084C68.999 24.068 69.012 24.052 69.027 24.035H80.93C84.824 24.035 87.992 26.315 87.992 29.117C87.991 31.921 84.823 34.201 80.93 34.201Z" fill="#F78F1E" stroke="#F78F1E" stroke-width="0.75"/>
</g>
<defs>
<clipPath id="clip0">
<rect width="90" height="50" fill="white"/>
</clipPath>
</defs>
</svg>
