<svg width="864" height="542" viewBox="0 0 864 542" fill="none" xmlns="http://www.w3.org/2000/svg">
<g clip-path="url(#clip0)">
<path d="M143.6 252.12C137.909 249.258 131.69 247.596 125.33 247.24C125.33 247.24 130.83 241.24 126.71 237.44C122.59 233.64 118.71 235.21 115.71 237.44C115.71 237.44 108.97 190.65 82.42 188.31C82.42 188.31 93.77 138.92 76.52 103.31L75.72 101.6C73.8716 98.2224 72.3578 94.6722 71.2 91C66.01 74.36 67.2 61.59 71.2 47.33C75.2 33.07 88.29 35.74 99.27 40.79C101.68 41.9 110.32 47.04 113.34 49.11V49.71C123.55 56.71 149.73 74.18 156.34 73.47C164.58 72.58 151.76 66.34 151.76 66.34L166.1 69.65C166.1 69.65 176.42 66.65 183.19 64.73C191.43 62.36 207.89 58.51 211.87 56.83C218.64 53.99 231.39 51.64 235.36 51.64C235.36 51.64 228.74 56.98 234.54 55.5C238.729 54.2935 242.786 52.6687 246.65 50.65C256.918 44.3942 266.684 37.3497 275.86 29.58C289.23 18.03 294.39 19.11 296.68 20C298.97 20.89 301.68 22.23 303.55 32.92C304.87 40.65 306.67 44.19 306.7 51.44V50.6C306.7 50.6 320.78 52.67 326.27 48.52C331.76 44.37 326.27 53.86 326.27 53.86C326.27 53.86 354.79 50.52 383.01 53.86C386.47 54.27 430.01 62.86 448.01 73.49C466.01 84.12 490.62 67.4 538.32 69.65C594.15 72.28 635.03 82.65 682.8 104.65C723.22 123.27 743.24 144.2 805.57 137.6C809.516 137.09 813.491 136.826 817.47 136.81C824.98 137.15 810.6 141.81 805.57 147.41C799.17 154.54 816.57 161.67 816.57 161.67C816.57 161.67 803.45 166.67 796.13 164.04C793.56 163.1 816.57 177.71 816.57 177.71C779.96 169.39 751.16 200.66 767.14 204.44C733.28 196.44 755.24 211.87 755.24 211.87C755.24 211.87 732 223 722.27 225C705.47 228.45 683.64 223.87 681.54 218.76C679.44 213.65 680.88 233.49 680.88 233.49C680.88 233.49 669.88 231.24 662.95 224.25C658.95 220.25 659.72 241.04 655.14 233.32C652.35 228.61 623.42 214.32 640.8 233.49C645.73 238.93 584.9 232.49 581.73 225.27C582.537 233.21 582.426 241.216 581.4 249.13C578.11 271.04 573.53 271.04 570.4 300.61C570.4 300.61 565.95 343.53 570.4 355.56C574.85 367.59 576.99 366.71 577.52 372.05C578.9 385.75 581.68 409.05 562.02 413.05C535.02 418.57 528.18 403.64 526.35 397.43C524.52 391.22 519.48 368.05 523.14 359.58C526.8 351.11 532.93 321.96 531.56 315.74V314.69C511.56 328.18 487.9 340.08 476.01 341.76C455.01 344.76 427.19 317.4 420.78 309.08C419.655 307.345 418.896 305.399 418.55 303.36L418.38 302.59C408.73 297.73 382.76 296.46 382.76 296.46L382.18 297.14C376.599 303.485 371.349 310.114 366.45 317C354.1 335.15 350.16 338.5 344.91 348.28C344.91 348.28 349.05 352.71 346.39 378.08C345.95 382.25 341.14 385.22 336.7 388.29C332.26 391.36 328 394.53 325.03 395.64C319.08 397.87 310.38 398.1 306.68 395.64C302.28 392.74 292.18 384.82 291.62 382.28C289.79 374.03 292.99 348.41 296.2 340.84C296.638 339.863 297.16 338.926 297.76 338.04L297.59 337.94L276.52 341.73C277.52 338.73 263.2 332.26 265.52 337.94C269.03 346.48 263.24 358.21 263.24 358.21C257.13 344.21 245.39 357.77 245.39 357.77C244.93 372.03 228.91 390.52 217.01 397.4C202.56 405.76 155.19 440.22 153.17 446.4C150.3 449.57 148.17 458.46 149.51 466.68C150.43 472.47 147.68 473.58 144.02 476.26C140.36 478.94 142.88 489.85 142.65 495.42C142.65 495.42 136.65 505.49 129.02 504.14L129.59 504.22C129.59 504.22 130.78 509.22 119.54 513.69C116.83 514.76 113.42 513.54 109.54 510.8C109.54 510.8 109 516.8 104.88 516.8C101.47 516.8 91.88 518.95 87.7 514.47L87.99 514.75C77.42 514.75 73.53 510.56 73.53 497.19C73.53 483.38 79.26 482.93 79.26 482.93C83.37 479.37 98.93 460.65 109.46 438.82C119.99 416.99 129.14 406.73 140.58 390.69C152.02 374.65 149.5 376.43 153.16 366.63C156.82 356.83 169.16 337.89 169.16 337.89C169.16 337.89 174.27 323.56 163.29 327.72C163.29 327.72 150.47 312.86 155.45 292.66C155.45 292.66 159.02 277.31 148.03 282.01C148.03 282.01 158.27 256.01 145.11 252.86L143.6 252.12Z" fill="#F78F1E"/>
<path d="M383.16 296.46C383.16 296.46 409.16 297.73 418.78 302.59C415.53 287.95 417.99 256.68 417.99 256.68L418.78 255.68C410.01 266.45 395.4 282.2 383.16 296.43V296.46Z" fill="white"/>
<path d="M268.68 245.34C268.68 245.34 300.18 269.13 339.15 255.14C339.15 255.14 333.2 252.34 330.45 248.33C330.45 248.33 345.56 247.89 362.45 238.53C379.34 229.17 397.23 223.38 408.21 226.94C408.21 226.94 395.86 230.28 391.74 235.29C391.74 235.29 397.74 238.97 399.98 244.29C395.182 243.32 390.199 243.945 385.79 246.07C385.79 246.07 359.7 257.21 358.79 289.3C358.79 289.3 334.08 298.21 339.57 303.11C339.57 303.11 329.04 299.99 326.57 295.11C324.1 290.23 324.05 294.66 324.05 294.66C323.467 298.85 323.134 303.071 323.05 307.3C323.05 307.3 303.12 328.46 297.05 338.11L276 341.91C267.15 310.12 229.32 341.91 229.32 341.91C220.56 325.86 193.66 320.62 193.66 320.62C193.4 311.09 182.33 321.11 182.33 321.11C182.33 299.57 168.72 300.49 163.88 306.26C157.51 313.83 162.81 327.94 162.81 327.94C162.81 327.94 150 313.09 155 292.89C155 292.89 158.57 277.54 147.58 282.24C147.58 282.24 155.14 263.04 148.91 255.63L148.32 255.25C141.321 250.603 133.216 247.891 124.83 247.39C124.83 247.39 130.33 241.39 126.21 237.59C122.09 233.79 118.21 235.36 115.21 237.59C115.21 237.59 109.09 190.22 82.54 187.88L83.64 186.71C175.03 223.9 159.93 256.53 162.75 265.49C169.81 287.92 191.24 283.49 191.24 283.49C195.92 283.49 197.71 280.79 198.36 278.25H199.03C199.67 280.81 201.45 283.53 206.15 283.53C206.15 283.53 221.56 287.32 231.85 267.94C242.14 248.56 212.25 228.72 315.68 163.94C277.85 190.37 287.34 224.27 287.34 224.27C281.24 222.49 276.97 227.17 276.97 227.17C272.18 234.17 279.97 240.76 279.97 240.76C279.97 240.76 275.21 242.36 268.65 245.31L268.68 245.34Z" fill="white"/>
<path d="M218.76 74.85C220.571 71.2862 222.84 67.9747 225.51 65C228.176 61.9613 231.133 59.1913 234.34 56.73C237.49 54.26 240.77 52.02 244.01 49.73L253.66 43C259.994 38.4908 266.086 33.6507 271.91 28.5L274.11 26.57L276.44 24.57C278.03 23.27 279.65 21.98 281.44 20.77C283.228 19.5143 285.118 18.4104 287.09 17.47C287.61 17.23 288.09 16.99 288.7 16.78C289.31 16.57 289.81 16.37 290.42 16.2C291.718 15.8092 293.065 15.6038 294.42 15.59C295.179 15.5838 295.937 15.661 296.68 15.82C297.396 15.9649 298.096 16.1792 298.77 16.46C300.201 17.0004 301.502 17.8351 302.59 18.91C303.568 19.925 304.379 21.0896 304.99 22.36C305.513 23.4263 305.957 24.5292 306.32 25.66C306.954 27.721 307.449 29.8224 307.8 31.95C308.14 33.87 308.48 35.65 308.92 37.54C309.36 39.43 309.83 41.36 310.22 43.47C310.622 45.6013 310.849 47.7618 310.9 49.93C310.937 54.1102 310.585 58.2848 309.85 62.4C309.16 66.4711 308.157 70.483 306.85 74.4C305.56 78.27 304.06 82.01 302.6 85.62C301.88 87.44 301.19 89.22 300.6 91.01C299.992 92.7522 299.514 94.5371 299.17 96.35C299.003 97.2364 298.883 98.131 298.81 99.03C298.787 99.413 298.787 99.797 298.81 100.18C298.81 100.33 298.81 100.46 298.81 100.42C298.752 100.32 298.689 100.223 298.62 100.13C298.343 99.8222 297.969 99.6177 297.56 99.55C297.257 99.5019 296.947 99.5473 296.67 99.68C296.56 99.74 296.54 99.77 296.56 99.76C296.654 99.7002 296.742 99.6297 296.82 99.55C297.091 99.255 297.345 98.9445 297.58 98.62C298.09 97.91 298.58 97.1 299.08 96.34L303.08 89.42L302.56 97.16C302.46 98.64 302.3 100.03 302.07 101.47C301.858 102.926 301.523 104.361 301.07 105.76C300.819 106.536 300.455 107.27 299.99 107.94C299.6 108.45 299.55 108.57 299.57 108.94C299.711 109.419 299.998 109.842 300.39 110.15C300.859 110.542 301.372 110.878 301.92 111.15L302.64 111.53L302.32 112.15C301.452 113.829 300.677 115.555 300 117.32C299.293 119.087 298.822 120.94 298.6 122.83C298.537 120.895 298.756 118.962 299.25 117.09C299.694 115.198 300.272 113.34 300.98 111.53L301.38 112.53C300.649 112.281 299.951 111.945 299.3 111.53C298.532 111.056 297.929 110.358 297.57 109.53C297.369 109.018 297.32 108.459 297.43 107.92C297.478 107.662 297.555 107.41 297.66 107.17C297.711 107.057 297.767 106.947 297.83 106.84L297.92 106.69V106.6C298.152 106.077 298.327 105.531 298.44 104.97C298.687 103.694 298.831 102.399 298.87 101.1C298.87 99.78 298.87 98.4 298.87 97.1L302.4 97.92C301.987 98.9022 301.513 99.8575 300.98 100.78C300.683 101.29 300.348 101.778 299.98 102.24C299.744 102.538 299.479 102.813 299.19 103.06C298.964 103.249 298.715 103.411 298.45 103.54C297.955 103.785 297.396 103.872 296.85 103.79C296.19 103.671 295.596 103.316 295.18 102.79C294.953 102.509 294.771 102.196 294.64 101.86C294.493 101.469 294.39 101.063 294.33 100.65C294.24 100.054 294.19 99.4527 294.18 98.85C294.154 97.7752 294.194 96.6999 294.3 95.63C294.734 91.5108 295.637 87.4546 296.99 83.54C299.45 75.94 301.74 68.75 302.61 61.27C303.124 57.587 303.322 53.8667 303.2 50.15C303.115 48.3752 302.891 46.6097 302.53 44.87C302.17 43.1 301.66 41.23 301.19 39.26C300.72 37.29 300.3 35.26 299.94 33.26C299.636 31.4958 299.222 29.7524 298.7 28.04C298.472 27.2898 298.188 26.5577 297.85 25.85C297.615 25.3286 297.301 24.8463 296.92 24.42C296.789 24.2985 296.649 24.1881 296.5 24.09C296.276 23.9491 296.038 23.8318 295.79 23.74C295.557 23.632 295.312 23.5515 295.06 23.5C294.834 23.4489 294.602 23.4254 294.37 23.43C292.958 23.4973 291.575 23.8583 290.31 24.49C288.708 25.2177 287.169 26.0773 285.71 27.06C284.17 28.06 282.71 29.16 281.16 30.3L276.57 34C270.323 39.042 263.738 43.6495 256.86 47.79C253.46 49.88 249.99 51.79 246.54 53.79C243.09 55.79 239.68 57.66 236.32 59.64C229.588 63.5972 223.637 68.752 218.76 74.85V74.85Z" fill="#231F20"/>
<path d="M301.06 38.9C300.942 36.3474 300.634 33.8071 300.14 31.3C299.899 30.1109 299.581 28.9385 299.19 27.79C298.894 26.8662 298.459 25.9928 297.9 25.2C297.789 25.0528 297.661 24.9186 297.52 24.8C297.52 24.8 297.52 24.8 297.52 24.8C297.52 24.8 297.52 24.8 297.43 24.8C297.252 24.7637 297.071 24.7436 296.89 24.74C295.953 24.7378 295.027 24.932 294.17 25.31C291.94 26.3092 289.863 27.6189 288 29.2C283.9 32.52 280 36.47 276.06 40.36C274.06 42.36 272.06 44.25 270.06 46.13C268.06 48.01 266.06 49.95 264.06 51.88C260.13 55.75 256.35 59.73 252.86 63.88C249.377 68.1089 246.252 72.6212 243.52 77.37C242.15 79.75 240.84 82.18 239.6 84.64C238.36 87.1 237.2 89.64 236.15 92.15C235.09 94.6924 234.231 97.3137 233.58 99.99C233.264 101.334 233.036 102.696 232.9 104.07C232.76 105.44 232.77 106.83 232.74 108.22C232.68 106.83 232.58 105.45 232.64 104.05C232.692 102.655 232.839 101.265 233.08 99.89C233.564 97.1418 234.266 94.4366 235.18 91.8C236.08 89.15 237.07 86.54 238.18 83.99C239.29 81.44 240.44 78.89 241.69 76.39C244.183 71.3555 247.093 66.5386 250.39 61.99C253.707 57.4852 257.248 53.1498 261 49C264.69 44.84 268.59 40.78 272.27 36.76C275.95 32.74 279.65 28.45 283.96 24.53C286.202 22.4073 288.738 20.6189 291.49 19.22C293.144 18.4056 294.948 17.9425 296.79 17.86C297.304 17.8352 297.819 17.8553 298.33 17.92C298.644 17.9482 298.955 18.0017 299.26 18.08C299.601 18.1665 299.935 18.2767 300.26 18.41C301.366 18.8848 302.356 19.5946 303.16 20.49C304.355 21.8515 305.303 23.4117 305.96 25.1C306.558 26.5407 307.056 28.0208 307.45 29.53C307.83 30.99 308.14 32.45 308.45 33.9C308.76 35.35 308.92 36.76 309.07 38.35L301.06 38.9Z" fill="#231F20"/>
<path d="M159.42 114.21C159.398 111.879 159.116 109.558 158.58 107.29C158.097 105.048 157.428 102.851 156.58 100.72C154.915 96.4922 152.684 92.5094 149.95 88.88C148.615 87.0591 147.172 85.3193 145.63 83.67C144.87 82.83 144.07 82.06 143.26 81.25L140.75 78.82C137.417 75.5933 134.043 72.41 130.63 69.27C123.867 63.0191 116.795 57.1116 109.44 51.57L106.67 49.57C105.74 48.95 104.81 48.3 103.87 47.72C102.058 46.5402 100.175 45.4748 98.23 44.53C94.4538 42.6545 90.4031 41.392 86.23 40.79C84.4678 40.571 82.6792 40.7243 80.98 41.24C79.4689 41.7389 78.1555 42.7055 77.23 44C76.7152 44.7177 76.273 45.4848 75.91 46.29C75.74 46.74 75.53 47.16 75.39 47.63L75.16 48.33L74.92 49.14C74.27 51.33 73.72 53.52 73.19 55.71C72.66 57.9 72.19 60.1 71.94 62.31C71.6058 64.5139 71.3855 66.7335 71.2801 68.96C71.0813 73.4395 71.3224 77.9276 72 82.36C72.18 83.48 72.34 84.6 72.58 85.71C72.82 86.82 73.03 87.94 73.31 89.05C73.8266 91.2462 74.512 93.3993 75.36 95.49C77.0181 99.749 79.102 103.83 81.58 107.67C86.5666 115.526 92.8765 122.458 100.23 128.16C92.0793 123.291 84.9481 116.89 79.23 109.31C76.3125 105.495 73.7896 101.394 71.7 97.07C71.17 95.98 70.7 94.86 70.25 93.73C69.8 92.6 69.38 91.44 69.01 90.31C68.64 89.18 68.22 88.04 67.89 86.88C67.56 85.72 67.22 84.56 66.89 83.38C65.671 78.6391 65 73.7739 64.89 68.88C64.8158 63.9809 65.2312 59.0866 66.13 54.27C66.57 51.89 67.13 49.52 67.69 47.19L67.91 46.31L68.19 45.31C68.37 44.66 68.64 44.01 68.87 43.31C69.4425 41.9805 70.1566 40.7165 71 39.54C72.7958 36.9585 75.3403 34.99 78.29 33.9C81.0522 32.9255 83.998 32.5837 86.91 32.9C92.0244 33.5147 96.9923 35.0172 101.59 37.34C106.011 39.5763 110.192 42.2568 114.07 45.34C121.553 51.2318 128.607 57.648 135.18 64.54C138.47 67.94 141.65 71.43 144.76 74.99L147.05 77.69C147.81 78.61 148.61 79.55 149.33 80.53C150.806 82.4464 152.165 84.45 153.4 86.53C155.852 90.7324 157.678 95.2702 158.82 100C160.007 104.643 160.211 109.483 159.42 114.21V114.21Z" fill="#231F20"/>
<path d="M109.59 46.9C109.59 46.9 148.43 74.4 156.67 73.51C164.91 72.62 152.09 66.38 152.09 66.38L166.43 69.69C166.43 69.69 176.75 66.69 183.52 64.77C191.76 62.4 208.22 58.55 212.2 56.87C218.97 54.03 231.72 51.68 235.69 51.68C235.69 51.68 229.07 57.02 234.87 55.54C239.066 54.3348 243.13 52.7099 247 50.69" stroke="#231F20" stroke-width="8" stroke-miterlimit="10"/>
<path d="M582.08 225.28C582.887 233.22 582.776 241.226 581.75 249.14C578.46 271.05 573.88 271.05 570.75 300.62C570.75 300.62 566.3 343.54 570.75 355.57C575.2 367.6 577.34 366.72 577.87 372.06C579.25 385.76 582.03 409.06 562.37 413.06C535.32 418.58 528.53 403.65 526.7 397.44C524.87 391.23 519.83 368.06 523.49 359.59C527.15 351.12 533.56 323.26 532.19 317.04" stroke="#231F20" stroke-width="8" stroke-miterlimit="10"/>
<path d="M817.8 136.88C825.31 137.22 810.93 141.88 805.9 147.48C799.5 154.61 816.9 161.74 816.9 161.74C816.9 161.74 803.78 166.74 796.46 164.11C793.89 163.17 816.9 177.78 816.9 177.78C780.29 169.46 751.49 200.73 767.47 204.51C733.61 196.51 755.57 211.94 755.57 211.94C755.57 211.94 732.37 223 722.62 225C705.82 228.45 683.99 223.87 681.89 218.76C679.79 213.65 681.23 233.49 681.23 233.49C681.23 233.49 670.23 231.24 663.3 224.25C659.3 220.25 660.07 241.04 655.49 233.32C652.7 228.61 623.77 214.32 641.15 233.49C646.08 238.93 585.25 232.49 582.08 225.27" stroke="#231F20" stroke-width="8" stroke-miterlimit="10"/>
<path d="M307 50.64C307 50.64 321.08 52.71 326.57 48.56C332.06 44.41 326.57 53.9 326.57 53.9C326.57 53.9 355.09 50.56 383.31 53.9C386.77 54.31 430.31 62.9 448.31 73.53C466.31 84.16 490.92 67.44 538.62 69.69C594.45 72.32 635.33 82.69 683.1 104.69C723.52 123.31 743.54 144.24 805.87 137.64C809.816 137.13 813.791 136.866 817.77 136.85" stroke="#231F20" stroke-width="8" stroke-miterlimit="10"/>
<path d="M324.93 306.11C323.93 307.81 322.93 309.47 321.93 311.11L318.85 316.11L312.69 326C312.146 326.782 311.53 327.512 310.85 328.18C310.19 328.87 309.61 329.62 309.01 330.35C307.79 331.81 306.63 333.28 305.46 334.76L303.78 337C303.23 337.74 302.72 338.49 302.19 339.23C301.66 339.97 301.19 340.69 300.81 341.38L300.33 342.3C300.16 342.6 300.06 343.02 299.91 343.37C299.351 345.035 298.89 346.731 298.53 348.45C298.13 350.24 297.79 352.07 297.53 353.91C296.91 357.59 296.43 361.33 296.06 365.06C295.686 368.745 295.5 372.446 295.5 376.15C295.5 377.03 295.5 377.95 295.61 378.79L295.71 380.05L295.89 381.16V381.43C295.89 381.52 295.89 381.43 295.89 381.37C295.895 381.32 295.895 381.27 295.89 381.22C295.876 381.168 295.856 381.117 295.83 381.07V381L295.89 381.08C295.907 381.115 295.927 381.149 295.95 381.18L296.1 381.36C296.199 381.496 296.306 381.626 296.42 381.75C296.92 382.31 297.51 382.92 298.17 383.53C300.883 386.021 303.735 388.358 306.71 390.53C307.45 391.07 308.2 391.62 308.94 392.11C309.088 392.223 309.245 392.323 309.41 392.41L309.68 392.57C309.92 392.66 310.16 392.78 310.48 392.87C311.95 393.284 313.473 393.482 315 393.46C316.676 393.479 318.35 393.338 320 393.04C320.819 392.899 321.63 392.716 322.43 392.49C322.82 392.38 323.21 392.27 323.58 392.13L324.13 391.94L324.58 391.75C326.106 390.995 327.574 390.125 328.97 389.15C330.5 388.15 332.06 387.02 333.65 385.92C335.24 384.82 336.89 383.7 338.33 382.66C339.64 381.77 340.842 380.73 341.91 379.56C342.248 379.168 342.525 378.726 342.73 378.25C342.742 378.164 342.766 378.08 342.8 378C342.8 377.92 342.8 377.84 342.8 377.76C342.807 377.667 342.807 377.573 342.8 377.48V377.13L342.86 376.43C342.94 375.49 343.06 374.55 343.11 373.61C343.078 372.671 343.152 371.732 343.33 370.81C344.19 367.11 344.89 363.39 345.39 359.64C345.65 357.763 345.81 355.874 345.87 353.98C346.019 352.08 345.806 350.17 345.24 348.35C345.946 349.07 346.518 349.91 346.93 350.83C347.367 351.74 347.757 352.671 348.1 353.62C348.732 355.529 349.256 357.472 349.67 359.44C350.454 363.367 351.002 367.337 351.31 371.33C351.362 372.317 351.298 373.307 351.12 374.28C350.99 375.28 350.93 376.23 350.83 377.2L350.76 377.94V378.3C350.769 378.447 350.769 378.593 350.76 378.74C350.7 379.13 350.64 379.53 350.55 379.92C350.46 380.31 350.33 380.67 350.2 381.04C349.696 382.358 348.968 383.579 348.05 384.65C346.575 386.351 344.896 387.862 343.05 389.15C341.37 390.36 339.81 391.38 338.26 392.48C336.71 393.58 335.11 394.69 333.45 395.8C331.688 397.025 329.833 398.108 327.9 399.04C327.64 399.17 327.32 399.29 327.03 399.41L326.21 399.7C325.68 399.89 325.15 400.05 324.61 400.2C323.55 400.5 322.49 400.72 321.42 400.92C319.285 401.301 317.119 401.481 314.95 401.46C312.623 401.465 310.309 401.128 308.08 400.46C307.438 400.254 306.81 400.007 306.2 399.72C305.88 399.56 305.54 399.36 305.2 399.17C304.948 399.028 304.704 398.871 304.47 398.7C303.6 398.12 302.8 397.53 301.99 396.94C298.745 394.583 295.639 392.039 292.69 389.32C291.853 388.589 291.055 387.815 290.3 387C290.11 386.8 289.9 386.51 289.7 386.27L289.4 385.89C289.3 385.75 289.18 385.56 289.07 385.39L288.74 384.86L288.66 384.72L288.55 384.49C288.48 384.33 288.41 384.17 288.35 384.01C288.29 383.85 288.23 383.68 288.17 383.52C288.126 383.385 288.089 383.249 288.06 383.11L287.99 382.68C287.89 382.1 287.78 381.5 287.71 380.94L287.58 379.33C287.48 378.24 287.49 377.25 287.45 376.2C287.447 372.212 287.647 368.227 288.05 364.26C288.43 360.34 288.94 356.45 289.59 352.55C289.92 350.55 290.29 348.65 290.72 346.68C291.153 344.649 291.707 342.645 292.38 340.68C292.556 340.109 292.763 339.548 293 339L293.84 337.35C294.41 336.4 294.98 335.51 295.56 334.65C296.14 333.79 296.73 332.98 297.33 332.18L299.13 329.81C300.35 328.27 301.56 326.73 302.81 325.23C303.42 324.47 304.06 323.73 304.65 322.96C305.196 322.155 305.822 321.408 306.52 320.73C309.46 318.143 312.46 315.63 315.52 313.19L320.15 309.57C321.76 308.42 323.31 307.23 324.93 306.11Z" fill="#231F20"/>
<path d="M146.45 497.55C146.01 498.13 145.68 498.49 145.29 498.93C144.9 499.37 144.53 499.75 144.13 500.13C143.342 500.92 142.507 501.661 141.63 502.35C139.838 503.804 137.808 504.938 135.63 505.7C133.321 506.505 130.809 506.505 128.5 505.7C127.414 505.31 126.4 504.743 125.5 504.02C125.071 503.689 124.667 503.328 124.29 502.94C123.91 502.54 123.56 502.24 123.19 501.88C120.217 499.167 117.807 495.895 116.1 492.25C115.288 490.406 114.866 488.415 114.86 486.4C114.893 484.406 115.445 482.456 116.46 480.74C115.613 482.493 115.237 484.437 115.37 486.38C115.537 488.285 116.099 490.134 117.02 491.81C118.94 495.127 121.495 498.032 124.54 500.36C125.233 500.962 126.02 501.445 126.87 501.79C127.628 502.135 128.44 502.344 129.27 502.41C130.805 502.502 132.325 502.068 133.58 501.18C134.924 500.228 136.1 499.059 137.06 497.72C137.571 497.031 138.042 496.313 138.47 495.57C138.69 495.2 138.89 494.82 139.09 494.44C139.272 494.101 139.433 493.75 139.57 493.39L146.45 497.55Z" fill="#231F20"/>
<path d="M298 338L276.93 341.79C277.93 338.79 263.61 332.32 265.93 338C269.44 346.54 263.65 358.27 263.65 358.27C257.54 344.27 245.8 357.83 245.8 357.83C245.34 372.09 229.32 390.58 217.42 397.46C202.97 405.82 155.6 440.28 153.58 446.46C150.71 449.63 148.58 458.52 149.92 466.74C150.84 472.53 148.09 473.64 144.43 476.32C140.77 479 143.29 489.91 143.06 495.48" stroke="#231F20" stroke-width="8" stroke-miterlimit="10"/>
<path d="M88.37 514.83C77.8 514.83 73.91 510.64 73.91 497.27C73.91 483.46 79.64 483.01 79.64 483.01C83.75 479.45 99.31 460.73 109.84 438.9C120.37 417.07 129.52 406.81 140.96 390.77C152.4 374.73 149.88 376.51 153.54 366.71C157.2 356.91 169.54 337.97 169.54 337.97C169.54 337.97 174.65 323.64 163.67 327.8C163.67 327.8 150.85 312.94 155.83 292.74C155.83 292.74 159.4 277.39 148.41 282.09C148.41 282.09 158.65 256.09 145.49 252.94" stroke="#231F20" stroke-width="8" stroke-miterlimit="10"/>
<path d="M133.85 503.37C133.947 503.833 133.984 504.307 133.96 504.78C133.96 505.11 133.9 505.44 133.85 505.78C133.744 506.333 133.587 506.876 133.38 507.4C133.014 508.295 132.523 509.134 131.92 509.89C130.899 511.139 129.687 512.219 128.33 513.09C127.138 513.86 125.883 514.529 124.58 515.09C123.94 515.34 123.32 515.63 122.69 515.83L120.69 516.49C118.997 516.976 117.197 516.948 115.52 516.41C114.149 515.995 112.836 515.41 111.61 514.67C109.349 513.312 107.258 511.691 105.38 509.84C103.532 508.06 101.858 506.108 100.38 504.01C99.6271 502.954 98.9584 501.841 98.38 500.68C97.7449 499.488 97.3315 498.19 97.16 496.85C96.8296 494.277 97.1422 491.662 98.07 489.24C99.0003 486.906 100.434 484.806 102.27 483.09C100.702 484.96 99.5708 487.157 98.96 489.52C98.3733 491.816 98.3733 494.224 98.96 496.52C99.2402 497.599 99.7183 498.616 100.37 499.52C101.027 500.487 101.752 501.406 102.54 502.27C104.14 504.012 105.901 505.599 107.8 507.01C109.629 508.413 111.616 509.598 113.72 510.54C114.679 510.963 115.687 511.265 116.72 511.44C117.425 511.604 118.165 511.538 118.83 511.25C120.781 510.308 122.599 509.114 124.24 507.7C124.877 507.124 125.418 506.448 125.84 505.7C125.972 505.461 126.06 505.2 126.1 504.93C126.1 504.84 126.1 504.77 126.1 504.76C126.1 504.75 126.1 504.76 126.1 504.76C126.094 504.786 126.094 504.814 126.1 504.84V505C126.1 505.08 126.1 505.16 126.15 505.24L133.85 503.37Z" fill="#231F20"/>
<path d="M113.91 511.23C113.91 511.56 113.83 511.71 113.78 511.93C113.73 512.15 113.69 512.32 113.65 512.52C113.55 512.91 113.44 513.29 113.31 513.67C113.047 514.468 112.712 515.242 112.31 515.98C111.83 516.839 111.223 517.622 110.51 518.3C110.098 518.678 109.649 519.013 109.17 519.3C108.652 519.593 108.102 519.825 107.53 519.99L106.66 520.2L105.82 520.26C105.487 520.28 105.153 520.28 104.82 520.26C104.33 520.26 103.76 520.26 103.17 520.26C101.99 520.26 100.74 520.33 99.48 520.31C96.7975 520.361 94.1232 520 91.55 519.24C90.1175 518.794 88.7835 518.077 87.62 517.13C86.418 516.12 85.501 514.814 84.96 513.34C84.82 512.99 84.74 512.63 84.63 512.27L84.43 511.21L84.16 509.57L83.78 507.92L83.31 506.24C82.65 503.99 81.83 501.71 81.31 499.24C80.5334 496.838 80.6064 494.242 81.5168 491.888C82.4272 489.534 84.1196 487.564 86.31 486.31C84.5235 487.834 83.2087 489.835 82.52 492.08C82.0998 494.308 82.3576 496.61 83.26 498.69C84.05 500.84 85.15 502.94 86.16 505.16L86.9 506.85L87.57 508.61L88.15 510.44L88.38 511.12C88.48 511.32 88.56 511.54 88.67 511.73C90.26 514.8 94.81 514.88 99.18 514.29C100.29 514.15 101.42 513.96 102.61 513.76C103.21 513.66 103.82 513.56 104.53 513.48C104.81 513.48 105.53 513.42 105.34 513.38C105.34 513.38 105.34 513.31 105.34 513.33C105.34 513.35 105.34 513.33 105.34 513.21C105.437 513.019 105.52 512.822 105.59 512.62C105.701 512.294 105.788 511.959 105.85 511.62C105.85 511.43 105.85 511.23 105.92 511.03C105.99 510.83 105.92 510.83 105.92 510.74C105.92 510.65 105.92 510.52 105.92 510.56L113.91 511.23Z" fill="#231F20"/>
<path d="M301.28 336.91C301.041 337.12 300.813 337.344 300.6 337.58C300.36 337.85 300.12 338.12 299.9 338.42C299.441 339.017 299.029 339.649 298.67 340.31C297.916 341.653 297.35 343.093 296.99 344.59C296.242 347.694 296.154 350.92 296.73 354.06L297.22 356.46C297.44 357.25 297.69 358.03 297.92 358.82C298.379 360.385 299.052 361.879 299.92 363.26C301.692 366.084 304.143 368.418 307.05 370.05C303.921 368.679 301.188 366.544 299.1 363.84C298.044 362.465 297.176 360.955 296.52 359.35C296.2 358.56 295.86 357.77 295.52 356.97L294.75 354.49C293.77 351.087 293.521 347.516 294.02 344.01C294.268 342.204 294.762 340.441 295.49 338.77C295.852 337.916 296.284 337.093 296.78 336.31C297.021 335.902 297.285 335.508 297.57 335.13C297.871 334.707 298.205 334.309 298.57 333.94L301.28 336.91Z" fill="#231F20"/>
<path d="M438.88 199.17C438.298 207.878 437.135 216.537 435.4 225.09C434.51 229.38 433.46 233.65 432.14 237.9C431.82 238.96 431.49 240.03 431.08 241.08C430.67 242.13 430.35 243.2 429.86 244.24C429.37 245.28 429 246.35 428.43 247.38C427.86 248.41 427.34 249.51 426.7 250.45C424.259 254.174 421.619 257.762 418.79 261.2C416.06 264.63 413.25 267.96 410.44 271.27C404.8 277.89 399.05 284.37 393.35 290.86C390.49 294.1 387.64 297.33 384.83 300.6C382.02 303.87 379.22 307.11 376.5 310.4C375.12 312.03 373.84 313.71 372.5 315.4C371.16 317.09 369.99 318.69 368.7 320.51C366.16 324.05 363.54 327.54 360.84 330.98L352.78 341.13C350.193 344.472 347.854 347.998 345.78 351.68C344.65 353.55 343.5 355.42 342.28 357.27C341.063 359.137 339.727 360.924 338.28 362.62C336.825 364.326 335.17 365.85 333.35 367.16C331.538 368.419 329.55 369.403 327.45 370.08C331.15 367.965 334.248 364.939 336.45 361.29C338.634 357.624 340.556 353.808 342.2 349.87C343.986 345.804 346.071 341.876 348.44 338.12C350.82 334.38 353.31 330.85 355.71 327.28C358.11 323.71 360.5 320.12 362.85 316.52C363.98 314.74 365.3 312.83 366.56 311.01C367.82 309.19 369.16 307.43 370.56 305.71C375.93 298.71 381.56 292.14 387.34 285.61C393.12 279.08 398.93 272.69 404.75 266.3C407.67 263.12 410.54 259.91 413.4 256.71C416.26 253.51 419.09 250.26 421.49 246.98C423.803 243.594 425.725 239.958 427.22 236.14C428.89 232.26 430.29 228.21 431.61 224.14C434.34 215.93 436.6 207.56 438.88 199.17Z" fill="#231F20"/>
<path d="M183.21 257.09C183.21 257.09 187.14 252.94 199.65 252.94C213.38 252.94 214.94 257.69 214.94 257.69C214.94 257.69 214.33 273.69 199.65 273.69C182.91 273.73 183.21 257.09 183.21 257.09Z" fill="#231F20"/>
<path d="M203.6 274.34C203.6 274.28 203.6 274.44 203.6 274.51V274.8C203.6 275 203.6 275.21 203.6 275.42C203.58 275.82 203.58 276.22 203.6 276.62C203.643 277.267 203.813 277.899 204.1 278.48C204.323 278.908 204.672 279.257 205.1 279.48C205.727 279.776 206.407 279.943 207.1 279.97L207.91 280.07H208.04L208.27 280.12L208.78 280.21C209.13 280.27 209.5 280.31 209.87 280.34C210.623 280.385 211.377 280.385 212.13 280.34C213.677 280.246 215.206 279.957 216.68 279.48C219.733 278.466 222.526 276.793 224.86 274.58C227.273 272.26 229.341 269.607 231 266.7C232.506 263.717 233.362 260.448 233.51 257.11C233.8 253.63 233.87 249.95 234.36 246.28C234.822 242.584 235.708 238.954 237 235.46C239.703 228.599 243.543 222.243 248.36 216.66C253.041 211.111 258.15 205.939 263.64 201.19C269.07 196.42 274.75 191.95 280.55 187.66C292.16 179.11 304.26 171.28 316.55 163.82C304.47 171.63 292.61 179.82 281.29 188.66C275.65 193.1 270.13 197.66 264.9 202.59C259.635 207.413 254.756 212.643 250.31 218.23C245.855 223.695 242.352 229.871 239.95 236.5C238.833 239.797 238.105 243.214 237.78 246.68C237.41 250.15 237.45 253.68 237.25 257.38C237.166 261.262 236.262 265.082 234.6 268.59C232.977 272.06 230.866 275.279 228.33 278.15C225.651 281.137 222.35 283.503 218.66 285.08C216.76 285.874 214.768 286.425 212.73 286.72C211.697 286.871 210.654 286.951 209.61 286.96C209.08 286.96 208.55 286.96 208.01 286.96C207.74 286.96 207.46 286.96 207.18 286.88C206.844 286.849 206.51 286.799 206.18 286.73L206.99 286.83C205.337 286.9 203.688 286.634 202.14 286.05C200.387 285.348 198.881 284.145 197.81 282.59C196.847 281.175 196.193 279.574 195.89 277.89C195.743 277.131 195.65 276.362 195.61 275.59C195.61 275.21 195.61 274.83 195.61 274.45V273.86C195.615 273.626 195.635 273.392 195.67 273.16L203.6 274.34Z" fill="#231F20"/>
<path d="M203.42 273.12C203.42 273.47 203.42 273.6 203.48 273.82V274.41C203.48 274.79 203.48 275.17 203.48 275.55C203.445 276.323 203.352 277.092 203.2 277.85C202.899 279.531 202.244 281.13 201.28 282.54C200.208 284.089 198.702 285.287 196.95 285.98C195.405 286.561 193.759 286.823 192.11 286.75L192.79 286.68C192.16 286.78 191.79 286.81 191.28 286.85C190.77 286.89 190.35 286.91 189.9 286.92C188.98 286.92 188.07 286.92 187.17 286.87C185.364 286.758 183.57 286.491 181.81 286.07C178.259 285.241 174.914 283.696 171.98 281.53C169.11 279.349 166.726 276.594 164.98 273.44C164.14 271.915 163.427 270.323 162.85 268.68C162.53 267.88 162.33 267.04 162.07 266.23C161.924 265.768 161.807 265.297 161.72 264.82C161.644 264.366 161.59 263.909 161.56 263.45C161.44 261.68 161.5 260.06 161.47 258.45C161.44 256.84 161.4 255.26 161.27 253.68C161 250.539 160.359 247.44 159.36 244.45C157.226 238.426 153.964 232.864 149.75 228.06C145.516 223.175 140.787 218.741 135.64 214.83C130.478 210.878 125.081 207.241 119.48 203.94C108.211 197.379 96.5183 191.573 84.48 186.56C96.6981 191.244 108.591 196.737 120.08 203C125.821 206.168 131.364 209.681 136.68 213.52C142.051 217.365 147.008 221.759 151.47 226.63C156.018 231.546 159.591 237.281 162 243.53C163.157 246.708 163.935 250.01 164.32 253.37C164.51 255.04 164.62 256.72 164.68 258.37C164.74 260.02 164.75 261.67 164.89 263.16C164.927 263.496 164.981 263.829 165.05 264.16C165.107 264.504 165.204 264.839 165.34 265.16C165.64 265.87 165.89 266.61 166.24 267.3C166.877 268.692 167.626 270.029 168.48 271.3C170.094 273.752 172.219 275.826 174.71 277.38C177.201 278.933 179.998 279.929 182.91 280.3C184.353 280.513 185.812 280.597 187.27 280.55C188 280.55 188.72 280.47 189.44 280.39C189.8 280.35 190.133 280.3 190.44 280.24C190.77 280.24 191.18 280.11 191.36 280.06H191.48H192.03C192.725 280.031 193.406 279.857 194.03 279.55C194.458 279.327 194.807 278.978 195.03 278.55C195.307 277.966 195.474 277.335 195.52 276.69C195.55 276.287 195.55 275.883 195.52 275.48C195.535 275.274 195.535 275.066 195.52 274.86V274.57C195.52 274.5 195.52 274.34 195.52 274.4L203.42 273.12Z" fill="#231F20"/>
<path d="M194.55 283.09C197.755 281.784 201.345 281.784 204.55 283.09" stroke="#231F20" stroke-width="8" stroke-miterlimit="10"/>
<path d="M251.72 181.22C217.57 181.84 224.91 208.62 224.91 208.62C224.91 208.62 226.48 209.62 227.01 208.33C227.54 207.04 226.72 205.95 228.01 205.74C229.3 205.53 256.25 205.26 251.72 181.22Z" fill="#231F20"/>
<path d="M138.27 188.16C172.46 184.07 166.61 210.65 166.61 210.65C166.61 210.65 165.08 211.73 164.5 210.44C163.92 209.15 164.5 208.92 163.24 208.75C161.98 208.58 136.82 211.15 138.27 188.16Z" fill="#231F20"/>
<path d="M581 241C581.056 237.027 580.848 233.055 580.38 229.11C580.1 227.11 579.91 225.11 579.53 223.11C579.15 221.11 578.87 219.11 578.41 217.19C577.95 215.27 577.57 213.26 577.02 211.32C576.47 209.38 576.02 207.42 575.39 205.51C574.76 203.6 574.19 201.67 573.53 199.76L571.39 194.11C571.06 193.11 570.65 192.23 570.23 191.31L569.01 188.54L567.79 185.77C567.39 184.85 566.89 183.97 566.44 183.07L563.69 177.67C562.69 175.91 561.69 174.18 560.63 172.43L559.09 169.82C558.6 168.94 557.98 168.13 557.43 167.28L554.04 162.28L553.19 161.02L552.27 159.81L550.41 157.41L546.7 152.59L550.56 157.29L552.49 159.64L553.49 160.82L554.38 162.06L557.94 167C558.52 167.83 559.16 168.62 559.68 169.49L561.31 172.07C562.38 173.79 563.49 175.5 564.54 177.24L567.48 182.58C567.96 183.48 568.48 184.35 568.93 185.27L570.24 188.02L571.56 190.78C572 191.69 572.45 192.61 572.82 193.56L575.15 199.21C575.88 201.11 576.52 203.05 577.21 204.97C577.9 206.89 578.44 208.86 579.05 210.81C579.66 212.76 580.15 214.74 580.64 216.72C582.689 224.696 583.826 232.878 584.03 241.11L581 241Z" fill="#231F20"/>
<path d="M226.65 275.71C230.31 271.67 234.14 267.79 238.14 264.07C242.158 260.338 246.417 256.873 250.89 253.7C255.421 250.572 260.151 247.743 265.05 245.23C269.951 242.692 274.993 240.435 280.15 238.47L279.41 242.4C278.828 241.915 278.28 241.39 277.77 240.83C277.278 240.29 276.817 239.723 276.39 239.13C275.485 237.893 274.777 236.523 274.29 235.07C273.762 233.487 273.608 231.803 273.84 230.15C274.092 228.505 274.699 226.936 275.62 225.55L275.71 225.4L275.86 225.25C276.084 225.004 276.321 224.77 276.57 224.55C276.79 224.35 277.01 224.16 277.23 223.98C277.679 223.618 278.15 223.284 278.64 222.98C279.635 222.351 280.707 221.854 281.83 221.5C282.989 221.132 284.195 220.934 285.41 220.91C286.629 220.896 287.844 221.051 289.02 221.37L285.41 224.94C285.16 224 285.01 223.29 284.85 222.48C284.69 221.67 284.58 220.92 284.47 220.14C284.27 218.58 284.14 217.02 284.07 215.46C283.953 212.334 284.087 209.204 284.47 206.1C285.257 199.869 287.004 193.797 289.65 188.1C292.312 182.406 295.851 177.165 300.14 172.57C302.243 170.283 304.505 168.148 306.91 166.18C308.1 165.18 309.34 164.27 310.56 163.33L314.36 160.72L314.54 167.07C313.94 166.67 313.54 166.37 313.11 166.02C312.68 165.67 312.26 165.33 311.85 165.02C311.03 164.31 310.25 163.59 309.5 162.84C308.008 161.334 306.621 159.727 305.35 158.03C304.065 156.356 302.908 154.588 301.89 152.74C300.893 150.891 300.021 148.976 299.28 147.01C297.834 143.112 297.004 139.013 296.82 134.86C296.665 130.817 297.109 126.773 298.14 122.86L298.93 122.96C298.924 126.825 299.33 130.68 300.14 134.46C300.572 136.291 301.113 138.094 301.76 139.86C303.692 145.051 306.632 149.809 310.41 153.86C311.658 155.198 312.995 156.451 314.41 157.61C315.1 158.2 315.81 158.76 316.52 159.29C316.88 159.55 317.24 159.81 317.6 160.05C317.922 160.274 318.256 160.481 318.6 160.67L323.46 163.33L318.78 167.03L315.45 169.65C314.45 170.59 313.29 171.46 312.26 172.4C311.23 173.34 310.17 174.27 309.26 175.29C308.35 176.31 307.26 177.29 306.35 178.29C302.575 182.326 299.298 186.802 296.59 191.62C293.921 196.465 292.063 201.714 291.09 207.16C290.606 209.89 290.355 212.657 290.34 215.43C290.34 216.81 290.4 218.2 290.52 219.56C290.58 220.227 290.66 220.893 290.76 221.56C290.85 222.2 290.98 222.94 291.09 223.43L292.22 228.49L287.49 227C286.197 226.568 284.805 226.53 283.49 226.89C282.793 227.084 282.122 227.359 281.49 227.71C281.173 227.894 280.866 228.094 280.57 228.31L280.15 228.64L279.84 228.91L280.07 228.62C279.535 229.339 279.159 230.164 278.97 231.04C278.798 231.923 278.836 232.834 279.08 233.7C279.362 234.687 279.793 235.624 280.36 236.48C280.665 236.941 280.999 237.381 281.36 237.8C281.689 238.202 282.043 238.583 282.42 238.94L285.35 241.69L281.67 242.88C276.593 244.546 271.606 246.475 266.73 248.66C261.806 250.795 257.026 253.247 252.42 256C247.861 258.853 243.498 262.006 239.36 265.44C235.19 268.88 231.11 272.44 227.23 276.23L226.65 275.71Z" fill="#231F20"/>
<path d="M167 272.77C164.396 269.507 161.493 266.494 158.33 263.77C155.23 261.076 151.882 258.682 148.33 256.62C144.833 254.61 141.115 253.013 137.25 251.86C133.44 250.765 129.503 250.173 125.54 250.1L120.02 249.93L123.59 245.33C123.74 245.13 124.02 244.75 124.21 244.44C124.42 244.117 124.614 243.783 124.79 243.44C125.108 242.848 125.334 242.21 125.46 241.55C125.547 241.167 125.519 240.767 125.38 240.4C125.315 240.274 125.234 240.156 125.14 240.05C124.962 239.876 124.772 239.716 124.57 239.57C124.168 239.202 123.693 238.923 123.177 238.751C122.66 238.578 122.112 238.517 121.57 238.57C120.308 238.83 119.135 239.416 118.17 240.27L113.68 243.88L112.58 237.96C112.14 235.58 111.58 233.01 110.91 230.56C110.24 228.11 109.53 225.63 108.73 223.21C107.181 218.407 105.221 213.746 102.87 209.28C100.668 204.986 97.7648 201.089 94.28 197.75C91.0463 194.649 86.8896 192.686 82.44 192.16L78.05 191.72L79.05 187.47C79.81 184.19 80.47 180.63 81.05 177.16C81.63 173.69 82.05 170.16 82.45 166.62C83.2349 159.564 83.6355 152.47 83.65 145.37C83.6796 138.257 83.1882 131.151 82.18 124.11C81.9 122.35 81.62 120.59 81.25 118.85C80.88 117.11 80.5 115.35 80.11 113.6C79.2167 110.133 78.1533 106.693 76.92 103.28C80.6223 109.589 83.4419 116.375 85.3 123.45C87.197 130.556 88.4455 137.819 89.03 145.15C89.3167 148.81 89.4834 152.477 89.53 156.15C89.53 159.82 89.53 163.5 89.27 167.15C89.01 170.8 88.75 174.48 88.27 178.15C87.79 181.82 87.27 185.4 86.54 189.15L83.13 184.47C86.2201 184.711 89.2432 185.497 92.06 186.79C94.818 188.06 97.3644 189.746 99.61 191.79C103.834 195.707 107.319 200.35 109.9 205.5C112.418 210.424 114.46 215.578 116 220.89C116.78 223.51 117.463 226.15 118.05 228.81C118.65 231.49 119.14 234.09 119.52 236.93L113.92 234.62C115.976 233.032 118.435 232.051 121.02 231.79C122.478 231.703 123.936 231.942 125.29 232.49C126.522 232.993 127.658 233.703 128.65 234.59C128.89 234.81 129.08 234.96 129.36 235.25C129.64 235.526 129.897 235.824 130.13 236.14C130.625 236.801 131.01 237.537 131.27 238.32C131.733 239.8 131.772 241.38 131.38 242.88C131.05 244.098 130.548 245.263 129.89 246.34C129.58 246.84 129.26 247.34 128.89 247.78C128.527 248.263 128.14 248.727 127.73 249.17L125.78 244.39C130.207 244.786 134.554 245.813 138.69 247.44C142.77 249.016 146.621 251.132 150.14 253.73C153.615 256.259 156.798 259.167 159.63 262.4C162.48 265.56 164.953 269.04 167 272.77V272.77Z" fill="#231F20"/>
<path d="M163.55 327.85C162.659 325.71 161.989 323.486 161.55 321.21C161.067 318.91 160.868 316.559 160.96 314.21C161.036 311.767 161.665 309.374 162.8 307.21C163.986 304.947 165.934 303.176 168.3 302.21C170.689 301.17 173.385 301.077 175.84 301.95C178.268 302.897 180.285 304.666 181.54 306.95C182.729 309.087 183.548 311.41 183.96 313.82C184.379 316.156 184.577 318.527 184.55 320.9L182.31 319.9C183.326 319.012 184.405 318.2 185.54 317.47C186.693 316.695 187.944 316.076 189.26 315.63C189.982 315.383 190.737 315.251 191.5 315.24C192.398 315.215 193.273 315.53 193.95 316.12C194.551 316.697 194.963 317.444 195.13 318.26C195.275 318.957 195.339 319.668 195.32 320.38L194.69 319.65C198.21 320.57 201.57 321.71 204.94 322.91C208.308 324.136 211.609 325.537 214.83 327.11C218.094 328.676 221.184 330.579 224.05 332.79C226.988 335.058 229.471 337.861 231.37 341.05L229.37 340.66C233.126 337.518 237.14 334.698 241.37 332.23C243.507 331.011 245.714 329.919 247.98 328.96C250.285 328.018 252.667 327.279 255.1 326.75C257.59 326.219 260.147 326.078 262.68 326.33C265.268 326.591 267.747 327.51 269.88 329C271.926 330.508 273.599 332.465 274.77 334.72C275.871 336.907 276.652 339.241 277.09 341.65L276.8 341.73C276.006 339.5 274.938 337.377 273.62 335.41C272.376 333.501 270.714 331.901 268.76 330.73C264.89 328.48 260.15 328.57 255.76 329.68C253.523 330.237 251.338 330.987 249.23 331.92C247.079 332.831 244.979 333.86 242.94 335C238.803 337.244 234.857 339.823 231.14 342.71L229.83 343.71L229 342.4C228.208 340.902 227.28 339.48 226.23 338.15C225.144 336.815 223.968 335.555 222.71 334.38C220.131 332.01 217.289 329.943 214.24 328.22C211.165 326.478 207.939 325.019 204.6 323.86C201.275 322.68 197.852 321.8 194.37 321.23L193.79 321.14L193.74 320.49C193.773 319.441 193.392 318.421 192.68 317.65C192.13 317.22 191.06 317.39 190.02 317.85C188.941 318.358 187.913 318.967 186.95 319.67C185.95 320.38 184.95 321.17 184.08 321.96L181.87 323.96V320.96C181.869 318.75 181.695 316.543 181.35 314.36C181.03 312.239 180.353 310.186 179.35 308.29C178.403 306.504 176.876 305.093 175.02 304.29C173.123 303.571 171.025 303.589 169.14 304.34C168.176 304.701 167.277 305.218 166.48 305.87C165.693 306.546 165.018 307.343 164.48 308.23C163.377 310.104 162.694 312.196 162.48 314.36C162.078 318.871 162.547 323.416 163.86 327.75L163.55 327.85Z" fill="#231F20"/>
<path d="M269 245C271.581 246.706 274.273 248.236 277.06 249.58C279.832 250.95 282.676 252.169 285.58 253.23C291.371 255.359 297.371 256.867 303.48 257.73C306.525 258.135 309.589 258.375 312.66 258.45C315.725 258.49 318.79 258.36 321.84 258.06C327.931 257.391 333.92 255.998 339.68 253.91L339.58 256.05C338.7 255.634 337.843 255.174 337.01 254.67C336.18 254.18 335.38 253.67 334.59 253.08C332.948 251.933 331.506 250.524 330.32 248.91L329 247L331.34 246.86C332.992 246.76 334.638 246.573 336.27 246.3C337.93 246.04 339.58 245.71 341.22 245.3C344.497 244.555 347.729 243.623 350.9 242.51C354.077 241.387 357.195 240.102 360.24 238.66C361.74 237.92 363.24 237.17 364.79 236.37C366.34 235.57 367.88 234.85 369.44 234.12C375.676 231.208 382.162 228.865 388.82 227.12C392.155 226.24 395.562 225.658 399 225.38C402.474 225.046 405.98 225.358 409.34 226.3L411 226.8L409.32 227.29C406.361 228.162 403.476 229.265 400.69 230.59C399.307 231.237 397.97 231.978 396.69 232.81C395.442 233.59 394.322 234.558 393.37 235.68L393.16 234.42C394.07 234.986 394.946 235.607 395.78 236.28C396.619 236.945 397.417 237.66 398.17 238.42C399.738 239.956 401.028 241.752 401.98 243.73L402.89 245.73L400.68 245.29C399.561 245.083 398.427 244.969 397.29 244.95C396.137 244.923 394.983 244.987 393.84 245.14C392.707 245.281 391.589 245.525 390.5 245.87C389.423 246.21 388.379 246.645 387.38 247.17H387.28C385.359 248.118 383.516 249.218 381.77 250.46C376.43 254.207 371.911 259.005 368.49 264.56C366.234 268.249 364.485 272.224 363.29 276.38C362.128 280.565 361.457 284.87 361.29 289.21V290.21L360.29 290.57C358.29 291.28 356.29 292.08 354.35 292.89C352.41 293.7 350.43 294.58 348.55 295.52C346.678 296.428 344.888 297.495 343.2 298.71C342.445 299.242 341.785 299.898 341.25 300.65C341.087 300.875 340.993 301.143 340.98 301.42C341.022 301.666 341.154 301.887 341.35 302.04L345 305.65L340.21 304.08C338.504 303.516 336.834 302.848 335.21 302.08C333.587 301.319 332.032 300.423 330.56 299.4C328.981 298.362 327.672 296.964 326.74 295.32C326.54 294.94 326.37 294.57 326.16 294.23C325.998 293.928 325.796 293.649 325.56 293.4C325.56 293.4 325.49 293.35 325.56 293.35C325.659 293.391 325.771 293.391 325.87 293.35C326.07 293.2 325.92 293.29 325.87 293.42C325.772 293.745 325.715 294.081 325.7 294.42V294.53C325.17 298.11 324.7 301.74 324.51 305.38C324.41 307.19 324.36 309.02 324.42 310.83C324.447 312.644 324.681 314.449 325.12 316.21L324.84 316.31C324.269 314.546 323.913 312.719 323.78 310.87C323.62 309.03 323.57 307.19 323.58 305.35C323.604 301.674 323.828 298.002 324.25 294.35V294.45C324.244 293.941 324.305 293.433 324.43 292.94C324.476 292.734 324.562 292.54 324.684 292.368C324.806 292.197 324.961 292.051 325.14 291.94C325.424 291.849 325.732 291.87 326 292C326.188 292.067 326.364 292.165 326.52 292.29C326.911 292.634 327.248 293.035 327.52 293.48C327.78 293.87 328 294.28 328.21 294.65C329.082 295.978 330.249 297.087 331.62 297.89C333.035 298.776 334.524 299.539 336.07 300.17C337.615 300.833 339.198 301.404 340.81 301.88L339.67 303.88C339.019 303.344 338.591 302.585 338.47 301.75C338.396 300.944 338.589 300.136 339.02 299.45C339.683 298.4 340.53 297.479 341.52 296.73C343.296 295.359 345.19 294.148 347.18 293.11C349.12 292.11 351.09 291.11 353.09 290.22C355.09 289.33 357.09 288.51 359.17 287.73L358.17 289.13C358.26 284.527 358.932 279.954 360.17 275.52C361.427 271.068 363.319 266.821 365.79 262.91C369.519 257.07 374.403 252.055 380.14 248.17C382.035 246.849 384.043 245.698 386.14 244.73H386.05C387.214 244.155 388.43 243.69 389.68 243.34C390.92 242.991 392.188 242.753 393.47 242.63C394.739 242.497 396.016 242.463 397.29 242.53C398.579 242.59 399.86 242.761 401.12 243.04L399.82 244.57C399.049 242.79 397.976 241.156 396.65 239.74C395.978 239.006 395.267 238.308 394.52 237.65C393.774 236.997 392.989 236.389 392.17 235.83L391.35 235.27L391.96 234.57C393.074 233.356 394.366 232.318 395.79 231.49C397.159 230.682 398.578 229.964 400.04 229.34C401.49 228.71 402.97 228.15 404.45 227.65C405.93 227.15 407.45 226.65 408.96 226.25V227.25C405.724 226.265 402.327 225.925 398.96 226.25C395.576 226.532 392.227 227.142 388.96 228.07C382.442 230 376.139 232.594 370.15 235.81C368.64 236.6 367.15 237.4 365.67 238.24C364.19 239.08 362.67 239.93 361.18 240.77C358.113 242.395 354.943 243.818 351.69 245.03C345.139 247.463 338.272 248.941 331.3 249.42L332.3 247.42C333.316 248.812 334.537 250.042 335.92 251.07C336.63 251.6 337.36 252.07 338.12 252.59C338.88 253.11 339.68 253.52 340.43 253.9L342.91 255.15L340.33 256.04C334.376 258.132 328.185 259.476 321.9 260.04C318.764 260.295 315.615 260.365 312.47 260.25C309.334 260.082 306.21 259.748 303.11 259.25C296.94 258.206 290.903 256.486 285.11 254.12C279.307 251.809 273.804 248.807 268.72 245.18L269 245Z" fill="#231F20"/>
<path d="M383.16 296.46C383.16 296.46 409.16 297.73 418.78 302.59" stroke="#231F20" stroke-width="8" stroke-miterlimit="10"/>
<path d="M140.1 192C139.44 191.77 138.71 191.56 138.01 191.37C137.31 191.18 136.58 190.99 135.85 190.84C134.4 190.5 132.919 190.316 131.43 190.29C132.887 189.799 134.392 189.464 135.92 189.29C136.68 189.19 137.45 189.13 138.22 189.08C138.99 189.03 139.76 188.99 140.57 188.99L140.1 192Z" fill="#231F20"/>
<path d="M562.41 174.53C565.81 174.33 569.22 174.27 572.62 174.24C576.02 174.21 579.43 174.24 582.84 174.37C589.65 174.6 596.46 175.1 603.24 175.96C606.63 176.42 610.02 176.96 613.38 177.6C616.74 178.24 620.09 179.1 623.38 180.1C626.721 181.11 629.954 182.45 633.03 184.1C636.25 185.728 639.053 188.075 641.22 190.96L639.16 191.09C639.838 189.8 640.423 188.463 640.91 187.09C641.378 185.719 641.712 184.305 641.91 182.87C642.135 181.484 642.088 180.068 641.77 178.7C641.463 177.386 640.728 176.211 639.68 175.36L634.68 171.22L640.54 173.95C647.64 177.25 654.84 180.39 662.14 183.24C669.44 186.09 676.81 188.79 684.28 191.15C691.72 193.555 699.276 195.584 706.92 197.23C710.71 198.047 714.543 198.655 718.4 199.05L721.26 199.22C722.26 199.22 723.17 199.22 724.09 199.22C725.013 199.184 725.932 199.08 726.84 198.91C727.704 198.76 728.552 198.525 729.37 198.21V200.75C727.741 200.028 726.158 199.207 724.63 198.29C723.097 197.396 721.63 196.393 720.24 195.29C718.801 194.158 717.499 192.863 716.36 191.43C715.156 189.914 714.275 188.169 713.77 186.3L713.2 184.02L715.59 184.46C723.918 185.989 732.389 186.593 740.85 186.26C745.067 186.119 749.266 185.624 753.4 184.78C754.4 184.54 755.46 184.37 756.47 184.1L759.47 183.24C759.977 183.108 760.474 182.945 760.96 182.75L762.43 182.19L765.43 181.06C773.66 177.8 782.43 176.58 791.03 176.2C799.67 175.861 808.322 176.376 816.86 177.74V178.04C808.319 177.315 799.734 177.295 791.19 177.98C786.947 178.344 782.729 178.962 778.56 179.83C774.421 180.646 770.376 181.886 766.49 183.53L763.49 184.76L761.96 185.38C761.453 185.604 760.932 185.794 760.4 185.95L757.25 186.95C756.19 187.25 755.12 187.48 754.05 187.74C749.772 188.667 745.423 189.236 741.05 189.44C736.691 189.655 732.322 189.595 727.97 189.26C723.602 188.946 719.26 188.348 714.97 187.47L716.79 185.63C717.183 187.084 717.863 188.444 718.79 189.63C719.771 190.898 720.895 192.049 722.14 193.06C723.402 194.109 724.739 195.065 726.14 195.92C727.543 196.787 728.996 197.571 730.49 198.27L733.49 199.66L730.43 200.8C728.427 201.515 726.317 201.887 724.19 201.9C723.19 201.9 722.19 201.9 721.19 201.9L718.19 201.64C714.246 201.151 710.338 200.409 706.49 199.42C702.66 198.42 698.87 197.37 695.12 196.18C691.37 194.99 687.63 193.76 683.93 192.44C676.52 189.83 669.17 187.06 661.84 184.24C654.51 181.42 647.2 178.58 639.92 175.58L640.75 174.18C642.131 175.211 643.139 176.665 643.62 178.32C644.062 179.917 644.194 181.583 644.01 183.23C643.83 184.819 643.495 186.386 643.01 187.91C642.55 189.436 641.971 190.924 641.28 192.36L640.44 194.11L639.22 192.48C637.185 189.994 634.637 187.978 631.75 186.57C628.802 185.053 625.727 183.798 622.56 182.82C616.118 180.879 609.539 179.422 602.88 178.46C599.547 177.96 596.197 177.517 592.83 177.13C589.47 176.76 586.09 176.45 582.72 176.13C579.35 175.81 575.95 175.61 572.57 175.42C569.19 175.23 565.78 175.08 562.39 174.97L562.41 174.53Z" fill="#231F20"/>
<path d="M286 49.89C281.634 53.0846 277.46 56.5339 273.5 60.22C269.532 63.8701 265.839 67.8074 262.45 72C259.059 76.1429 256.219 80.7075 254 85.58C251.769 90.3935 250.911 95.7297 251.52 101L250.26 100.61C251.177 99.6846 252.182 98.8506 253.26 98.12C254.332 97.3904 255.47 96.7643 256.66 96.25C257.847 95.7153 259.087 95.3064 260.36 95.03C261.639 94.7565 262.942 94.6124 264.25 94.6H266.25L264.73 95.91C263.31 97.159 261.992 98.52 260.79 99.98C259.578 101.442 258.488 103 257.53 104.64C256.609 106.278 255.878 108.016 255.35 109.82C254.889 111.625 254.713 113.491 254.83 115.35L253.94 114.91C254.76 114.474 255.63 114.138 256.53 113.91C257.421 113.671 258.338 113.54 259.26 113.52C260.189 113.504 261.116 113.625 262.01 113.88C262.903 114.139 263.753 114.53 264.53 115.04L265.65 115.71L264.34 115.89C263.313 116.007 262.306 116.252 261.34 116.62C260.893 116.738 260.476 116.95 260.119 117.244C259.762 117.537 259.472 117.904 259.27 118.32C259.247 118.781 259.331 119.241 259.515 119.664C259.699 120.087 259.978 120.462 260.33 120.76C261.054 121.478 261.897 122.067 262.82 122.5C264.705 123.363 266.748 123.826 268.82 123.86C270.921 123.912 273.013 123.573 274.99 122.86C273.037 123.692 270.942 124.14 268.82 124.18C266.678 124.227 264.55 123.829 262.57 123.01C261.566 122.584 260.643 121.989 259.84 121.25C259.446 120.86 259.109 120.415 258.84 119.93C258.523 119.391 258.416 118.753 258.54 118.14C258.701 117.55 259.053 117.03 259.54 116.66C259.99 116.32 260.485 116.044 261.01 115.84C262.022 115.426 263.079 115.134 264.16 114.97L263.97 115.83C263.263 115.387 262.495 115.05 261.69 114.83C260.889 114.614 260.059 114.526 259.23 114.57C258.397 114.603 257.571 114.737 256.77 114.97C255.97 115.212 255.201 115.548 254.48 115.97L253.68 116.43L253.59 115.53C253.406 113.518 253.561 111.49 254.05 109.53C254.59 107.613 255.348 105.764 256.31 104.02C257.292 102.306 258.416 100.677 259.67 99.15C260.916 97.6123 262.283 96.1777 263.76 94.86L264.22 96.11C263.018 96.1279 261.822 96.2721 260.65 96.54C259.472 96.7994 258.325 97.1849 257.23 97.69C256.129 98.1822 255.072 98.7677 254.07 99.44C253.069 100.105 252.132 100.862 251.27 101.7L250.21 102.7L250.02 101.25C249.408 95.7076 250.342 90.1038 252.72 85.06C253.837 82.5534 255.152 80.1392 256.65 77.84C258.162 75.5685 259.798 73.3818 261.55 71.29C265.069 67.143 268.904 63.2747 273.02 59.72C277.121 56.1553 281.457 52.8712 286 49.89V49.89Z" fill="#231F20"/>
<path d="M96.11 78.86C101.102 80.5219 105.974 82.5267 110.69 84.86C115.427 87.2046 119.959 89.9408 124.24 93.04C128.593 96.1412 132.364 99.987 135.38 104.4C136.873 106.67 137.966 109.18 138.61 111.82C139.215 114.496 139.215 117.274 138.61 119.95L138.4 120.95L137.53 120.46C136.512 119.899 135.436 119.453 134.32 119.13C133.201 118.802 132.045 118.611 130.88 118.56C129.728 118.501 128.573 118.626 127.46 118.93C126.351 119.234 125.3 119.721 124.35 120.37L124.21 119.21C127.407 120.406 130.433 122.016 133.21 124C133.916 124.529 134.56 125.136 135.13 125.81C135.428 126.165 135.677 126.559 135.87 126.98C135.977 127.2 136.057 127.431 136.11 127.67C136.158 127.904 136.185 128.141 136.19 128.38C136.284 130.131 135.984 131.881 135.31 133.5C134.615 135.122 133.47 136.51 132.01 137.5C130.558 138.428 128.931 139.047 127.23 139.32C123.901 139.805 120.51 139.669 117.23 138.92C120.521 139.462 123.881 139.428 127.16 138.82C128.761 138.491 130.276 137.834 131.61 136.89C132.922 135.958 133.936 134.666 134.53 133.17C135.102 131.67 135.331 130.06 135.2 128.46C135.154 127.727 134.841 127.037 134.32 126.52C133.792 125.93 133.198 125.404 132.55 124.95C131.211 124.008 129.796 123.178 128.32 122.47C126.845 121.728 125.333 121.06 123.79 120.47L122.62 120.02L123.62 119.31C124.684 118.566 125.863 118.001 127.11 117.64C128.36 117.296 129.655 117.144 130.95 117.19C132.23 117.234 133.499 117.436 134.73 117.79C135.967 118.13 137.161 118.61 138.29 119.22L137.21 119.7C137.71 117.22 137.69 114.662 137.15 112.19C136.561 109.701 135.546 107.333 134.15 105.19C131.259 100.901 127.657 97.1374 123.5 94.06C119.351 90.879 114.946 88.0461 110.33 85.59C105.723 83.0757 100.975 80.8287 96.11 78.86V78.86Z" fill="#231F20"/>
<path d="M418 256.68C418.17 267.59 418.35 278.49 419.32 289.23C419.58 291.91 419.85 294.58 420.26 297.23C420.611 299.777 421.19 302.287 421.99 304.73C422.3 305.725 422.78 306.659 423.41 307.49C424.21 308.49 425.1 309.43 426.01 310.38C427.82 312.28 429.74 314.12 431.71 315.91C439.64 322.91 448.18 329.55 457.5 333.91C462.13 336.06 466.97 337.73 471.65 337.99C473.979 338.124 476.314 337.891 478.57 337.3C481.049 336.668 483.49 335.894 485.88 334.98C490.839 333.103 495.699 330.974 500.44 328.6C505.25 326.26 509.97 323.72 514.65 321.08C524.004 315.806 533.064 310.028 541.79 303.77C546.109 300.665 550.255 297.327 554.21 293.77C556.148 292.011 557.972 290.131 559.67 288.14C560.484 287.187 561.239 286.185 561.93 285.14C562.273 284.618 562.587 284.077 562.87 283.52L563.77 281.74C566.214 276.971 568.222 271.99 569.77 266.86C570.577 264.285 571.245 261.667 571.77 259.02C572.326 256.363 572.687 253.669 572.85 250.96C573.303 256.446 572.993 261.969 571.93 267.37C570.935 272.841 569.401 278.201 567.35 283.37L566.57 285.31C566.31 285.95 565.96 286.67 565.57 287.31C564.877 288.59 564.105 289.825 563.26 291.01C561.602 293.307 559.798 295.494 557.86 297.56C554.013 301.583 549.907 305.351 545.57 308.84C541.303 312.347 536.893 315.68 532.34 318.84C527.81 322 523.16 324.96 518.44 327.84C508.956 333.645 498.985 338.614 488.64 342.69C485.938 343.698 483.18 344.55 480.38 345.24C478.883 345.605 477.363 345.866 475.83 346.02C474.258 346.176 472.675 346.193 471.1 346.07C468.078 345.823 465.097 345.215 462.22 344.26C459.443 343.363 456.744 342.239 454.15 340.9C449.123 338.27 444.347 335.187 439.88 331.69C435.459 328.277 431.285 324.554 427.39 320.55C425.39 318.55 423.54 316.55 421.72 314.38C420.81 313.31 419.91 312.22 419.04 311.03C418.096 309.637 417.418 308.08 417.04 306.44C416.353 303.645 415.917 300.793 415.74 297.92C415.54 295.14 415.443 292.37 415.45 289.61C415.45 284.1 415.73 278.61 416.18 273.18C416.63 267.75 417.18 262.08 418 256.68Z" fill="#231F20"/>
</g>
<defs>
<clipPath id="clip0">
<rect width="864" height="542" fill="white"/>
</clipPath>
</defs>
</svg>
